<?xml version="1.0" encoding="utf-8"?>
<!-- Generator: Adobe Illustrator 23.0.1, SVG Export Plug-In . SVG Version: 6.00 Build 0)  -->
<svg version="1.1" id="Layer_1" xmlns="http://www.w3.org/2000/svg" xmlns:xlink="http://www.w3.org/1999/xlink" x="0px" y="0px"
	 viewBox="0 0 408 325.2" style="enable-background:new 0 0 408 325.2;" xml:space="preserve">
<style type="text/css">
	.st0{fill:#90F4B2;}
	.st1{fill:#48DDED;}
	.st2{fill:#3AAAAF;}
	.st3{fill:#211F20;}
	.st4{fill:#3EE55D;}
	.st5{fill:#E56AAD;}
	.st6{fill:#EF2E65;}
	.st7{fill:#0B0B47;}
	.st8{fill:#2B2B2B;}
	.st9{fill:#DDD81F;}
	.st10{fill:#FFFF1A;}
	.st11{fill:#112938;}
	.st12{fill:#36323C;}
	.st13{fill:#2E5B7A;}
	.st14{fill:#3C74A0;}
	.st15{fill:#9CF447;}
	.st16{fill:#C8FF8D;}
	.st17{fill:#4698C6;}
	.st18{fill:#DFEBF4;}
	.st19{fill:#172C3A;}
	.st20{fill:#B2D8D8;}
	.st21{fill:#112356;}
	.st22{fill:#65AE22;}
	.st23{fill:#F92B2B;stroke:#FFFFFF;stroke-width:2;stroke-miterlimit:10;}
	.st24{fill:#FFFFFF;}
	.st25{fill:#E7EDD9;}
	.st26{fill:#00F500;}
	.st27{font-family:'Cubao_Free_Regular';}
	.st28{font-size:17.6776px;}
	.st29{opacity:0.61;fill:#DFEBF4;}
	.st30{opacity:0.61;fill:#6F98B2;}
	.st31{display:none;}
	.st32{display:inline;opacity:0.31;fill:#E7EDD9;}
	.st33{display:inline;opacity:0.38;fill:#FFFFFF;}
	.st34{opacity:0.32;fill:#444444;enable-background:new    ;}
	.st35{fill:#E8E8E8;}
	.st36{fill:#D8D8D8;}
</style>
<g>
	<path class="st0" d="M192.6,16.4c0,0-99.4,0.6-102.8,115.6c-3.4,115-8.1,176.8,85.4,188.9C268.6,333,375.5,298,358,203.3
		S411.8,0.9,192.6,16.4z"/>
	<g>
		<path class="st1" d="M328.6,94.4c-0.8-3-0.4-5.8,1.1-8.6c1.6-2.8,3.8-4.7,6.7-5.6c3-0.9,5.8-0.6,8.6,1c2.8,1.6,4.6,3.8,5.4,6.8
			s0.4,5.8-1.1,8.6c-1.6,2.9-3.8,4.7-6.8,5.5c-3,0.9-5.8,0.5-8.6-1C331.2,99.6,329.4,97.3,328.6,94.4z M346.5,69.5
			c-0.3-1.6,0-3.3,1-5.2c2.7-4.9,5.9-8.5,9.5-10.9c3.7-2.4,8.2-4.6,13.8-6.8c4.4-1.7,7.8-3.3,10.3-4.7c2.4-1.4,4.4-3.5,5.8-6.2
			c1.6-3,1.8-5.8,0.6-8.8c-1.2-3-3.7-5.4-7.4-7.5c-3.2-1.8-6.6-2.8-10.3-3c-3.7-0.2-8.2-0.2-13.5,0.2c-2.9,0-5-0.4-6.5-1.2
			c-1.5-0.8-2.4-2.2-2.8-4.2c-0.3-2,0-3.9,1-5.8c1.4-2.6,3.7-4.1,6.6-4.5c5.5-1.1,11.3-1.2,17.4-0.2c6.1,1,11.7,2.9,16.8,5.8
			c5.4,3,9.7,6.6,12.9,10.8c3.2,4.2,5,8.6,5.6,13.2c0.6,4.6-0.4,9-2.7,13.3c-2.6,4.6-5.9,8-10,10.2c-4.1,2.2-9.5,4.2-16.1,6.1
			c-5.7,1.7-10.2,3.4-13.4,4.9c-3.2,1.5-5.9,3.8-8.2,6.7c-1,1.3-2.2,2-3.6,2.2c-1.4,0.2-2.7,0-4.2-0.8
			C347.8,72.3,346.9,71,346.5,69.5z"/>
	</g>
	<path class="st2" d="M344.8,81.2c0,0,3.2,7.2,1.6,12c-1.6,4.8-7.8,8.9-13.4,7.3c0,0,8.6,7.1,16.6-4.1
		C349.6,96.4,354.4,86.8,344.8,81.2z"/>
	<path class="st2" d="M375.8,1.5c0,0,34.6,15.8,28.2,35.8S370.4,54,356.8,71.6c0,0,5.6-7.9,23.2-11.9c17.6-4.1,28.8-13.7,28-28.9
		S389.6,4.4,375.8,1.5z"/>
	<g>
		<g>
			<path class="st3" d="M86.1,59.8c1.9,1.4,3.9,2.8,6,4.1c2.1,1.3,4.2,2.5,6.4,3.5c4.3,2.2,8.9,3.9,13.7,4.9
				c2.4,0.4,4.8,0.7,7.2,0.7c2.4,0.1,4.9,0.1,7.3-0.1c2.4-0.2,4.9-0.4,7.3-0.6c2.4-0.2,5-0.5,7.4-0.2c0.3,0,0.6,0.1,1,0.2
				s0.6,0.1,1,0.2l0.9,0.3c0.3,0.2,0.6,0.2,0.9,0.5c1.2,0.6,1.9,1.8,2.4,3c0.9,2.4,1,4.9,1.5,7.3c0.2,1.2,0.6,2.3,1.2,3.4
				c0.6,1,1.4,1.9,2.5,2.4c1,0.6,2.2,0.7,3.4,0.6c1.2-0.2,2.3-0.6,3.4-1.1c2.2-1,4.2-2.5,6.2-3.9c1.9-1.5,3.8-3.1,5.4-4.9
				c1.8-1.8,3.4-3.5,5-5.4c0.8-1,1.5-1.9,2.2-2.9c0.6-1,1.4-2,1.8-3.2c-0.3,1.2-1,2.2-1.7,3.3c-0.7,1-1.4,2-2.2,3
				c-1.5,1.9-3.2,3.8-4.9,5.5c-1.7,1.8-3.5,3.4-5.4,5c-1.9,1.5-3.9,3-6.2,4.1c-1.1,0.6-2.3,1-3.5,1.2c-0.3,0-0.6,0.1-1,0.1
				s-0.6,0-1-0.1c-0.6-0.1-1.3-0.3-1.8-0.6c-1.1-0.6-2.2-1.4-2.8-2.6c-0.6-1.1-1-2.3-1.3-3.5c-0.6-2.4-0.7-4.9-1.6-7.1
				c-0.4-1.1-1.1-2.1-2.1-2.6c-0.2-0.2-0.5-0.2-0.8-0.4l-0.9-0.2c-0.2-0.1-0.6-0.2-0.9-0.2c-0.3-0.1-0.6-0.2-0.9-0.2
				c-2.4-0.2-4.8,0-7.2,0.2c-2.4,0.3-4.9,0.6-7.4,0.8c-2.5,0.2-5,0.2-7.4,0.2s-5-0.3-7.4-0.6c-4.9-1-9.6-2.6-14.1-4.8
				c-2.2-1-4.4-2.2-6.6-3.5C89,64.1,87,62.7,85,61.2L86.1,59.8z"/>
			<g>
				<polygon class="st4" points="25.5,15.4 31.7,58 49.9,33.6 				"/>
				<polygon class="st5" points="25.5,15.4 68.1,9.2 49.9,33.6 				"/>
				<polygon class="st6" points="87.2,61.5 31.7,58 49.8,33.6 				"/>
				<polygon class="st7" points="87.2,61.5 68.1,9.2 49.8,33.6 				"/>
			</g>
		</g>
		<polygon class="st4" points="102.4,62.9 96.6,60.1 96.4,67.5 90.8,72.2 96.6,75 96.7,67.6 		"/>
		<polygon class="st4" points="116.9,67.8 110.8,65.8 111.6,73.1 106.6,78.5 112.8,80.5 112,73.2 		"/>
		<polygon class="st4" points="127.5,67.5 121.1,67 123.6,73.9 120.1,80.3 126.5,80.9 124,73.9 		"/>
		<path class="st8" d="M108,31.6"/>
		<path class="st9" d="M31.2,58c-0.5,1.6-0.6,3.3-0.7,5c0,1.7,0.2,3.4,1,4.8l0.3,0.6l0.3,0.5c0.2,0.3,0.6,0.6,0.8,1
			c0.5,0.7,0.9,1.5,1.1,2.4c0.5,1.7,0.4,3.5-0.4,5.1h-0.1c0.3-1.7,0.2-3.3-0.3-4.8c-0.2-0.7-0.6-1.4-1-2.2c-0.2-0.3-0.5-0.6-0.7-1
			l-0.2-0.8L31,68c-0.7-1.6-0.8-3.4-0.7-5C30.3,61.3,30.6,59.6,31.2,58L31.2,58z"/>
		<path class="st9" d="M45.9,87.6c-0.2-2.6-0.7-5.3-1.6-7.8c-1-2.5-2.3-4.8-4.2-6.6c-0.5-0.5-1-0.9-1.4-1.4s-1-1-1.4-1.4
			c-0.9-1-1.7-2.1-2.4-3.3c-1.4-2.3-2.4-4.8-2.9-7.5l-0.2-1.4l1,1.2c1,1.4,2.2,2.6,3.4,3.8c1.2,1.2,2.4,2.4,3.7,3.5s2.6,2.2,4.1,3.1
			c1.4,1,3,1.8,4.5,2.5v0.1c-1.7-0.6-3.3-1.3-4.7-2.2c-1.5-0.9-3-1.9-4.2-3c-1.4-1.1-2.6-2.2-3.8-3.5c-1.2-1.3-2.3-2.6-3.4-3.9
			l0.7-0.2c0.4,2.6,1.4,5,2.6,7.4c0.6,1.1,1.4,2.2,2.2,3.2c0.9,1,1.8,1.8,2.8,2.8c1.9,1.9,3.2,4.3,4.2,6.8
			C45.4,82.3,45.9,85,45.9,87.6L45.9,87.6z"/>
		<path class="st9" d="M99.6,30.4c-0.8,0.2-1.7,0.1-2.5-0.1c-0.8-0.2-1.6-0.4-2.4-0.7c-1.5-0.6-3-1.6-4.2-2.7
			c-1.2-1.1-2.4-2.3-3.4-3.7l-0.8-1l-0.7-1l-1.4-2.1c-1.8-2.7-4.1-5.1-6.8-7c-1.3-1-2.8-1.7-4.3-2.3c-1.5-0.6-3.1-1-4.8-1V8.7
			c1.7-0.2,3.4,0.1,5,0.6c1.6,0.5,3.2,1.2,4.6,2.2c2.9,1.8,5,4.5,6.9,7.3l1.4,2.1l0.6,1l0.7,1c1,1.4,2.1,2.6,3.3,3.7
			c1.2,1.1,2.6,2.1,4.1,2.8c0.7,0.3,1.5,0.6,2.3,0.8C97.9,30.4,98.8,30.5,99.6,30.4L99.6,30.4z"/>
		<path class="st9" d="M69.2,8c2.1-0.4,4.2-0.2,6.3,0.4c2.1,0.6,4,1.4,5.8,2.6l1.4,0.9l1.3,1c0.9,0.6,1.6,1.4,2.3,2.2
			c0.7,0.8,1.4,1.6,2.1,2.4c0.6,0.9,1.2,1.8,1.8,2.6L90,20.1c-0.7-0.8-1.4-1.5-2.1-2.3c-0.7-0.7-1.4-1.5-2.2-2.2l-1.1-1l-0.6-0.6
			l-0.6-0.5l-1.2-1L81,11.5c-1.7-1.1-3.6-2.2-5.5-2.7C73.4,8.1,71.3,7.8,69.2,8L69.2,8z"/>
		<path class="st9" d="M68.4,9.6c2.5,1.2,4.8,2.8,6.8,4.7s3.8,4.2,4.9,6.7l0.8,1.9l0.4,1l0.5,0.9c0.6,1.2,1.4,2.4,2.2,3.4
			c1.6,2.2,3.6,4.1,6,5.4v0.1c-2.6-1-4.9-2.8-6.6-5c-0.5-0.6-0.8-1.1-1.2-1.7c-0.3-0.6-0.7-1.2-1-1.8l-0.5-1l-0.4-1l-0.6-2.1
			c-1-2.5-2.7-4.7-4.6-6.7C73,12.7,70.8,10.9,68.4,9.6L68.4,9.6z"/>
		<circle class="st10" cx="31.6" cy="58.4" r="1.2"/>
		<circle class="st10" cx="68.4" cy="8.8" r="1.2"/>
	</g>
</g>
<g>
	<rect x="130.4" y="111.3" class="st11" width="185.5" height="100.2"/>
	<path class="st12" d="M310.2,233.3h18.6c5.6,0,10.2,4.6,10.2,10.2v16.1h-39v-16.1C300.1,237.8,304.6,233.3,310.2,233.3z"/>
	<path class="st12" d="M117.4,233.3H136c5.6,0,10.2,4.6,10.2,10.2v16.1h-39v-16.1C107.2,237.8,111.8,233.3,117.4,233.3z"/>
	<rect x="105.2" y="258.8" class="st13" width="235.3" height="40.3"/>
	<rect x="136.5" y="161.7" class="st14" width="172.1" height="97.4"/>
	<circle class="st15" cx="162.6" cy="194.7" r="18.8"/>
	<circle class="st16" cx="162.6" cy="194.5" r="13.9"/>
	<circle class="st15" cx="283.7" cy="194.7" r="18.8"/>
	<circle class="st16" cx="284.2" cy="194.5" r="13.9"/>
	<path class="st12" d="M328.6,325.2h-18.6c-5.6,0-10.2-4.6-10.2-10.2V299h39v16.1C338.7,320.7,334.2,325.2,328.6,325.2z"/>
	<path class="st12" d="M136,325.2h-18.6c-5.6,0-10.2-4.6-10.2-10.2V299h39v16.1C146.2,320.7,141.7,325.2,136,325.2z"/>
	<rect x="104.9" y="211.5" class="st17" width="31.6" height="23.5"/>
	<rect x="308.6" y="211.1" class="st17" width="31.6" height="23.5"/>
	<rect x="126.6" y="73.6" class="st18" width="192.9" height="37.6"/>
	<path class="st18" d="M236,51.8l-12.7-28.1l-12.7,28.1H181c0,0,5.1,26.1,42.2,26.1s42.2-26.1,42.2-26.1H236z"/>
	<path class="st19" d="M191,249.5L191,249.5c-2.6,0-4.7-2.1-4.7-4.7v-51.4c0-2.6,2.1-4.7,4.7-4.7l0,0c2.6,0,4.7,2.1,4.7,4.7v51.4
		C195.8,247.3,193.7,249.5,191,249.5z"/>
	<path class="st19" d="M212.1,249.7L212.1,249.7c-2.6,0-4.7-2.1-4.7-4.7v-51.4c0-2.6,2.1-4.7,4.7-4.7l0,0c2.6,0,4.7,2.1,4.7,4.7V245
		C216.8,247.6,214.6,249.7,212.1,249.7z"/>
	<path class="st19" d="M233.7,249.5L233.7,249.5c-2.6,0-4.7-2.1-4.7-4.7v-51.4c0-2.6,2.1-4.7,4.7-4.7l0,0c2.6,0,4.7,2.1,4.7,4.7
		v51.4C238.4,247.3,236.3,249.5,233.7,249.5z"/>
	<path class="st19" d="M254.7,249.7L254.7,249.7c-2.6,0-4.7-2.1-4.7-4.7v-51.4c0-2.6,2.1-4.7,4.7-4.7l0,0c2.6,0,4.7,2.1,4.7,4.7V245
		C259.4,247.6,257.4,249.7,254.7,249.7z"/>
	<path class="st20" d="M122.6,150.6c-0.6-0.7-1-1.5-1-2.4c4.2-0.5,7.4-4,7.4-8.3v-20.2c0-4.2-3-7.6-7-8.2c1.2-2.5,4.9-3.4,4.9-3.4
		l-0.6-2.6c-0.2,0.1-5.9,1.5-7.1,6c-3.9,0.7-6.9,4.2-6.9,8.2v20.2c0,4.1,2.9,7.4,6.7,8.2c0,1.6,0.6,3,1.8,4.3
		c4.8,5.2,18.6,5.3,19.1,5.3v-2.7C136.2,155,126,154.2,122.6,150.6z"/>
	<path class="st20" d="M323.6,150.6c0.6-0.7,1-1.5,1-2.4c-4.2-0.5-7.4-4-7.4-8.3v-20.2c0-4.2,3-7.6,7-8.2c-1.2-2.5-4.9-3.4-4.9-3.4
		l0.6-2.6c0.2,0.1,5.9,1.5,7.1,6c3.9,0.7,6.9,4.2,6.9,8.2v20.2c0,4.1-2.9,7.4-6.7,8.2c0,1.6-0.6,3-1.8,4.3
		c-4.8,5.2-18.6,5.3-19.1,5.3v-2.7C310.2,155,320.3,154.2,323.6,150.6z"/>
	<g>
		<path class="st21" d="M143,84.1l3.9,16c-1.1,0.2-2.2,0.2-3.1-0.4c-1-0.6-1.6-1.3-1.8-2.3l-0.2-0.9l-0.1-0.4h-3.8l-0.1,0.4
			l-0.2,0.9c-0.2,1-0.9,1.8-1.8,2.3c-1,0.6-2,0.6-3.1,0.4l4-16c0.2-1,0.8-1.7,1.7-2.2c0.5-0.2,1-0.4,1.5-0.4s1,0.2,1.5,0.4
			C142.2,82.4,142.7,83.1,143,84.1z M138.6,92.7h2.5l-1.2-6L138.6,92.7z"/>
		<path class="st21" d="M160.6,93.9l3.7,5.5c-1,0.6-1.9,0.9-3,0.6c-1-0.2-1.8-0.8-2.5-1.7l-2.5-3.7h-1.8v0.2c0,1.4-0.5,2.7-1.4,3.8
			c-0.9,1-1.9,1.5-3.2,1.5V85.5c0-1.2,0.5-2.2,1.4-3c0.9-0.9,1.9-1.3,3-1.3h2.7c1,0,2,0.2,2.8,0.5c0.9,0.3,1.6,0.7,2.2,1.3
			s1,1.3,1.4,2.1c0.3,0.8,0.5,1.8,0.5,2.8l0,0c0,1.1-0.2,2.1-0.6,3c-0.3,0.9-0.8,1.6-1.4,2.2C161.5,93.4,161,93.7,160.6,93.9z
			 M154.6,85.5v5h2.2c0.8,0,1.4-0.2,1.9-0.6c0.5-0.5,0.7-1,0.7-1.8V88c0-0.8-0.2-1.4-0.7-1.8c-0.5-0.4-1.1-0.6-1.9-0.6
			C156.7,85.5,154.6,85.5,154.6,85.5z"/>
		<path class="st21" d="M177.3,84.1l3.9,16c-1.1,0.2-2.2,0.2-3.1-0.4c-1-0.6-1.6-1.3-1.8-2.3l-0.2-0.9l-0.1-0.4h-3.8l-0.1,0.4
			l-0.2,0.9c-0.2,1-0.9,1.8-1.8,2.3c-1,0.6-2,0.6-3.1,0.4l4-16c0.2-1,0.8-1.7,1.7-2.2c0.5-0.2,1-0.4,1.5-0.4s1,0.2,1.5,0.4
			C176.5,82.4,177,83.1,177.3,84.1z M172.9,92.7h2.5l-1.2-6L172.9,92.7z"/>
		<path class="st21" d="M195.9,85.5c0-1.1,0.4-2.1,1.2-2.9c0.8-0.8,1.8-1.2,3-1.2v14.7c0,1.1-0.4,2.1-1.2,2.9
			c-0.8,0.8-1.8,1.2-2.9,1.2v-1.4l-7.6-10.1v7.5c0,1.1-0.4,2.1-1.2,2.9c-0.8,0.8-1.8,1.2-2.9,1.2V85.6c0-1.1,0.4-2.1,1.2-2.9
			c0.8-0.8,1.8-1.2,2.9-1.2l7.5,10.9L195.9,85.5L195.9,85.5z"/>
		<path class="st21" d="M204.4,97.7c-0.2-0.5-0.3-1-0.3-1.6V85.5c0,0,0,0,0-0.1l0,0c0-1.2,0.3-2.1,1-2.8c0.6-0.7,1.5-1.1,2.6-1.1h8
			v1c0,1-0.3,1.8-1,2.4c-0.6,0.6-1.4,1-2.5,1v-0.5h-2.7c-0.2,0-0.6,0.2-0.7,0.3c-0.2,0.2-0.3,0.5-0.4,0.7c0,0.1,0,0.2,0,0.2v1.3
			c0,0.1,0,0.1,0,0.2v7c0.1,0.3,0.2,0.6,0.4,0.7c0.2,0.2,0.5,0.3,0.7,0.3h4.2v-2.8c0-0.1,0-0.2,0-0.4c-0.9-0.2-1.5-0.6-2-1.1
			c-0.5-0.6-0.7-1.4-0.7-2.4h3.9c0.3,0,0.7,0.1,1,0.2c0.3,0.1,0.6,0.2,0.7,0.3c0.2,0.2,0.3,0.3,0.5,0.6c0.2,0.2,0.2,0.4,0.2,0.6
			c0.1,0.2,0.1,0.4,0.2,0.7c0,0.3,0.1,0.5,0.1,0.6c0,0.2,0,0.4,0,0.6s0,0.4,0,0.5v2.9c0,0.5-0.1,0.9-0.2,1.4
			c-0.2,0.4-0.4,0.8-0.6,1.1s-0.6,0.6-1,0.8c-0.4,0.2-0.8,0.3-1.2,0.4h-6.2c-0.9-0.1-1.7-0.4-2.4-0.9
			C205.1,98.8,204.7,98.3,204.4,97.7z"/>
		<path class="st21" d="M230.3,91.1l5.1,8.5c-0.6,0.4-1.3,0.6-2,0.6c-0.7,0-1.4-0.1-2.1-0.4c-0.6-0.3-1.1-0.8-1.5-1.4l-3.3-5.5
			c-0.2,0.1-0.5,0.1-0.7,0.1v3.1c0,1.1-0.4,2-1.3,2.8s-1.8,1.2-3,1.2v-15c0-1.1,0.4-2,1.3-2.8c0.9-0.8,1.8-1.1,3-1.1v8l3.6-6.2
			c0.6-1,1.3-1.5,2.2-1.8c1-0.2,1.9,0,3,0.6l-5,8.6C229.8,90.4,230.1,90.7,230.3,91.1z"/>
		<path class="st21" d="M248.3,84.1l3.9,16c-1.1,0.2-2.2,0.2-3.1-0.4c-1-0.6-1.6-1.3-1.8-2.3l-0.2-0.9l-0.1-0.4h-3.8l-0.1,0.4
			l-0.2,0.9c-0.2,1-0.9,1.8-1.8,2.3c-1,0.6-2,0.6-3.1,0.4l4-16c0.2-1,0.8-1.7,1.7-2.2c0.5-0.2,1-0.4,1.5-0.4s1,0.2,1.5,0.4
			C247.5,82.4,248.1,83.1,248.3,84.1z M243.8,92.7h2.5l-1.2-6L243.8,92.7z"/>
		<path class="st22" d="M262.1,81.3c1.3,0,2.5,0.2,3.5,0.8c1,0.6,1.8,1.4,2.5,2.4c0.6,1,0.9,2.3,0.9,3.7V94c0,1.1-0.3,2.2-0.9,3.2
			c-0.6,1-1.4,1.8-2.5,2.3s-2.2,0.9-3.5,0.9h-6.6l0,0l0,0v-15c0-1,0.3-2,1-2.8c0.7-0.8,1.6-1.2,2.6-1.3l0,0h0.5l0,0L262.1,81.3
			L262.1,81.3z M265,93.3v-5c0-0.8-0.3-1.5-0.9-2.1c-0.6-0.6-1.2-0.9-2-0.9h-2.6v10.9c0,0,0,0,0,0.1c0,0,0,0,0,0.1h2.6
			c0.8,0,1.4-0.3,2-0.9C264.7,94.8,265,94.1,265,93.3z"/>
		<path class="st22" d="M281.4,84.1l3.9,16c-1.1,0.2-2.2,0.2-3.1-0.4s-1.6-1.3-1.8-2.3l-0.2-0.9l-0.1-0.4h-3.8l-0.1,0.4l-0.2,0.9
			c-0.2,1-0.9,1.8-1.8,2.3c-1,0.6-2,0.6-3.1,0.4l4-16c0.2-1,0.8-1.7,1.7-2.2c0.5-0.2,1-0.4,1.5-0.4s1,0.2,1.5,0.4
			C280.6,82.4,281.1,83.1,281.4,84.1z M276.9,92.7h2.5l-1.2-6L276.9,92.7z"/>
		<path class="st22" d="M289.4,81.6h10.7c0,1.2-0.4,2.2-1.2,3c-0.8,0.7-1.8,1.1-2.9,1.1h-1.2v10.6c0,1.1-0.4,2.1-1.3,2.9
			c-0.9,0.8-1.9,1.2-3.1,1.2V85.8h-5.2c0-1.2,0.4-2.2,1.1-2.9C287.3,81.9,288.2,81.6,289.4,81.6z"/>
		<path class="st22" d="M309.8,84.1l3.9,16c-1.1,0.2-2.2,0.2-3.1-0.4s-1.6-1.3-1.8-2.3l-0.2-0.9l-0.1-0.4h-3.8l-0.1,0.4l-0.2,0.9
			c-0.2,1-0.9,1.8-1.8,2.3c-1,0.6-2,0.6-3.1,0.4l4-16c0.2-1,0.8-1.7,1.7-2.2c0.5-0.2,1-0.4,1.5-0.4c0.6,0,1,0.2,1.5,0.4
			C309,82.4,309.5,83.1,309.8,84.1z M305.4,92.7h2.5l-1.2-6L305.4,92.7z"/>
	</g>
	<polygon class="st21" points="126.6,97.1 134.4,107.9 311.8,107.9 319.5,99 319.5,111.3 126.4,111.3 	"/>
	<polygon class="st21" points="210.4,52.1 223.1,23.9 235.9,52.1 224.5,73.6 	"/>
	<rect x="176.8" y="263.6" class="st23" width="94.4" height="30.4"/>
	<g>
		<path class="st24" d="M218.6,282.3c0.3,0.2,0.5,0.6,0.5,1.1c0,1-0.6,1.5-1.8,1.5h-1.5v2.3c0,0.6-0.2,1.1-0.6,1.4
			c-0.4,0.3-0.8,0.5-1.4,0.5s-1-0.2-1.4-0.5c-0.3-0.3-0.6-0.8-0.6-1.4v-2.3h-7.8c-0.6,0-1-0.2-1.3-0.5c-0.3-0.3-0.5-0.7-0.5-1.1
			c0-0.5,0.2-1,0.5-1.4l9.2-13.2c0.2-0.2,0.5-0.5,0.7-0.6c0.3-0.2,0.6-0.2,1-0.2c0.5,0,1,0.2,1.4,0.5c0.4,0.3,0.6,0.8,0.6,1.4v12.2
			h1.5C217.9,281.9,218.4,282,218.6,282.3z M206.6,281.9h5.5v-8L206.6,281.9z"/>
		<path class="st24" d="M222.8,286.5c-1.3-1.8-2-4.5-2-8c0-3.5,0.6-6.2,2-8c1.3-1.8,3.2-2.7,5.7-2.7c2.5,0,4.4,0.9,5.7,2.7
			c1.3,1.8,2,4.5,2,8c0,3.5-0.6,6.2-2,8c-1.3,1.8-3.2,2.8-5.7,2.8C226,289.2,224.2,288.3,222.8,286.5z M231.4,284.4
			c0.6-1.2,1-3.2,1-5.9c0-2.7-0.3-4.7-1-5.9c-0.6-1.2-1.6-1.8-3-1.8s-2.3,0.6-3,1.8s-1,3.2-1,5.9c0,2.7,0.3,4.6,1,5.9
			c0.6,1.2,1.6,1.8,3,1.8S230.8,285.6,231.4,284.4z"/>
		<path class="st24" d="M254.4,282.3c0.3,0.2,0.5,0.6,0.5,1.1c0,1-0.6,1.5-1.8,1.5h-1.5v2.3c0,0.6-0.2,1.1-0.6,1.4
			c-0.4,0.3-0.8,0.5-1.4,0.5s-1-0.2-1.4-0.5c-0.3-0.3-0.6-0.8-0.6-1.4v-2.3H240c-0.6,0-1-0.2-1.3-0.5c-0.3-0.3-0.5-0.7-0.5-1.1
			c0-0.5,0.2-1,0.5-1.4l9.2-13.2c0.2-0.2,0.5-0.5,0.7-0.6c0.3-0.2,0.6-0.2,1-0.2c0.5,0,1,0.2,1.4,0.5c0.4,0.3,0.6,0.8,0.6,1.4v12.2
			h1.5C253.6,281.9,254.1,282,254.4,282.3z M242.2,281.9h5.5v-8L242.2,281.9z"/>
	</g>
	<rect x="139.5" y="111.3" class="st25" width="166" height="50.4"/>
	<rect x="179.2" y="127.3" width="49.5" height="17.6"/>
	<text transform="matrix(0.8551 0 0 1 180.8805 141.7288)" class="st26 st27 st28">route</text>
	<g>
		<circle class="st29" cx="203.7" cy="125.4" r="5.1"/>
		<circle class="st30" cx="203.7" cy="125.4" r="2.4"/>
	</g>
	<g class="st31">
		<rect x="139.8" y="111.3" class="st32" width="166" height="50.4"/>
		<polygon class="st33" points="249.3,111.4 241.7,161.7 247.5,161.7 254.9,111.4 		"/>
		<polygon class="st33" points="210.4,111.4 202.5,161.7 237.6,161.7 245.6,111.4 		"/>
		<polygon class="st33" points="198.9,111.4 191.3,161.7 197.1,161.7 204.5,111.4 		"/>
	</g>
	<polygon class="st34" points="220,262.8 272,294.8 272,262.8 	"/>
	<g>
		<g>
			<path class="st35" d="M102.2,252.9c0-11.7-9.4-21.1-21.1-21.1c-3.5,0-6.8,0.9-9.8,2.4c-3.8-4.7-9.8-7.8-16.4-7.8
				c-5,0-9.8,1.8-13.4,4.7c-2.3-4.2-6.7-7-11.8-7c-0.1,0-0.2,0-0.2,0c-0.9-3.8-4.4-6.7-8.6-6.7c-4.9,0-8.8,3.9-8.8,8.8
				c0,3.4,1.8,6.2,4.6,7.7c-0.3,1.2-0.6,2.5-0.6,3.8c0,6.6,4.8,12.2,11.2,13.3c-1.7,2.4-2.6,5.4-2.6,8.6c0,8.3,6.7,15,15,15
				c2,0,3.9-0.4,5.7-1.1c-0.3,1.4-0.5,2.8-0.5,4.2c0,10.2,8.2,18.5,18.5,18.5c5,0,9.5-2,12.8-5.2c2.2,1,4.8,1.6,7.4,1.6
				c10.2,0,18.5-8.2,18.5-18.5c0-3.8-1.1-7.3-3-10.2C101,260.7,102.2,256.9,102.2,252.9z"/>
			<path class="st36" d="M71.2,234c0,0,17.6-2.4,22.4,8.8c4.8,11.2,0,19.2,0,19.2s4,12.8-0.8,19.2c-4.8,6.4-17.6,0.8-17.6,0.8
				s-4.8,11.2-16,7.2s-12.8-18.4-12.8-18.4s-6.4,4.8-15.2,0.8c0,0,9.6,5.6,13.6,1.6c0,0-0.8,12,4.8,16.8c5.6,4.8,16,10.4,26.4,0.8
				c0,0,12,6.4,22.4-5.6s0-21.6,0-21.6s11.2-12.8-3.2-26.4C80.8,223.6,71.2,234,71.2,234z"/>
		</g>
		<g>
			<path class="st35" d="M24.6,212.8c1.5,0,3-0.6,4.1-1.5c1,1,2.5,1.5,4.1,1.5c3.4,0,6.1-2.7,6.1-6.1c0-3.4-2.7-6.1-6.1-6.1
				c-0.1,0-0.2,0-0.3,0c0-0.2,0.1-0.5,0.1-0.7c0-2.4-1.9-4.2-4.2-4.2c-2.4,0-4.2,1.9-4.2,4.2c0,0.2,0,0.5,0.1,0.7
				c-3,0.3-5.4,2.9-5.4,6.1C18.5,210.1,21.2,212.8,24.6,212.8z"/>
			<path class="st36" d="M31.4,197.3c0,0,1.4,2.3-0.2,4.7c0,0,6.4,0.8,5.6,6.4c-0.8,5.6-6,4.2-6,4.2s5,1.5,7.5-3.8
				c2.5-5.2-3.3-8.2-5.8-8.2C32.5,200.7,32,197.8,31.4,197.3z"/>
		</g>
		<g>
			<circle class="st35" cx="4.2" cy="198.3" r="4.2"/>
			<path class="st36" d="M7,195c0,0,1.8,3.8,0.2,5.4c-1.6,1.6-3,2.6-4.7,1.7c0,0,3.1,1.4,5.5-1.8C8,200.3,10.1,197.5,7,195z"/>
		</g>
	</g>
</g>
<text transform="matrix(1 0 0 1 -525.8136 102.8137)" class="st27" style="font-size:12px;">Lorem ipsum</text>
</svg>
