<?xml version="1.0" encoding="utf-8"?>
<!-- Generator: Adobe Illustrator 23.0.1, SVG Export Plug-In . SVG Version: 6.00 Build 0)  -->
<svg version="1.1" xmlns="http://www.w3.org/2000/svg" xmlns:xlink="http://www.w3.org/1999/xlink" x="0px" y="0px"
	 viewBox="0 0 510.1 410" style="enable-background:new 0 0 510.1 410;" xml:space="preserve">
<style type="text/css">
	.st0{fill:#90F4B2;}
	.st1{fill:#48DDED;}
	.st2{fill:#3AAAAF;}
	.st3{fill:#211F20;}
	.st4{fill:#3EE55D;}
	.st5{fill:#E56AAD;}
	.st6{fill:#EF2E65;}
	.st7{fill:#0B0B47;}
	.st8{fill:#2B2B2B;}
	.st9{fill:#DDD81F;}
	.st10{fill:#FFFF1A;}
	.st11{fill:#112938;}
	.st12{fill:#36323C;}
	.st13{fill:#2E5B7A;}
	.st14{fill:#3C74A0;}
	.st15{fill:#9CF447;}
	.st16{fill:#C8FF8D;}
	.st17{fill:#E7EDD9;}
	.st18{fill:#4698C6;}
	.st19{fill:#DFEBF4;}
	.st20{fill:#172C3A;}
	.st21{fill:#B2D8D8;}
	.st22{fill:#112356;}
	.st23{fill:#65AE22;}
	.st24{fill:#E8E8E8;}
	.st25{fill:#D8D8D8;}
	.st26{fill:#FFFFFF;}
	.st27{fill:#F92B2B;stroke:#FFFFFF;stroke-width:2;stroke-miterlimit:10;}
	.st28{opacity:0.32;fill:#444444;}
</style>
<g id="Layer_2">
	<path class="st0" d="M240.8,24c0,0-124.3,0.8-128.5,144.5s-10.1,221,106.7,236.1c116.8,15.1,250.4-28.6,228.5-147
		S514.7,4.6,240.8,24z"/>
	<g>
		<path class="st1" d="M410.7,121.5c-1-3.7-0.5-7.3,1.4-10.8c2-3.5,4.8-5.9,8.4-7c3.7-1.1,7.3-0.7,10.8,1.3c3.5,2,5.8,4.8,6.8,8.5
			c1,3.7,0.5,7.3-1.4,10.8c-2,3.6-4.8,5.9-8.5,6.9c-3.7,1.1-7.3,0.6-10.7-1.3C414,128,411.7,125.1,410.7,121.5z M433.1,90.3
			c-0.4-2,0-4.1,1.3-6.5c3.4-6.1,7.4-10.6,11.9-13.6c4.6-3,10.3-5.8,17.3-8.5c5.5-2.1,9.8-4.1,12.9-5.9c3-1.8,5.5-4.4,7.3-7.7
			c2-3.7,2.3-7.3,0.8-11c-1.5-3.7-4.6-6.8-9.3-9.4c-4-2.2-8.3-3.5-12.9-3.8c-4.6-0.3-10.3-0.2-16.9,0.3c-3.6,0-6.3-0.5-8.1-1.5
			c-1.9-1-3-2.8-3.5-5.3c-0.4-2.5,0-4.9,1.3-7.2c1.8-3.2,4.6-5.1,8.3-5.6c6.9-1.4,14.1-1.5,21.7-0.3c7.6,1.2,14.6,3.6,21,7.2
			c6.8,3.8,12.1,8.3,16.1,13.5c4,5.3,6.3,10.7,7,16.5c0.7,5.7-0.5,11.3-3.4,16.6c-3.2,5.8-7.4,10-12.5,12.7
			c-5.1,2.7-11.9,5.3-20.1,7.6c-7.1,2.1-12.7,4.2-16.7,6.1c-4,1.9-7.4,4.7-10.2,8.4c-1.3,1.6-2.8,2.5-4.5,2.8c-1.7,0.3-3.4,0-5.2-1
			C434.7,93.8,433.6,92.2,433.1,90.3z"/>
	</g>
	<path class="st2" d="M431,105c0,0,4,9,2,15s-9.7,11.1-16.8,9.1c0,0,10.8,8.9,20.8-5.1C437,124,443,112,431,105z"/>
	<path class="st2" d="M469.7,5.3c0,0,43.3,19.7,35.3,44.7s-42,21-59,43c0,0,7-9.9,29-14.9C497,73,511,61,510,42S487,9,469.7,5.3z"/>
	<g>
		<g>
			<path class="st3" d="M107.6,78.2c2.4,1.8,4.9,3.5,7.5,5.1c2.6,1.6,5.2,3.1,8,4.4c5.4,2.7,11.1,4.9,17.1,6.1c3,0.5,6,0.9,9,0.9
				c3,0.1,6.1,0.1,9.1-0.1c3-0.2,6.1-0.5,9.1-0.8c3-0.3,6.2-0.6,9.3-0.2c0.4,0,0.8,0.1,1.2,0.2c0.4,0.1,0.8,0.1,1.2,0.3l1.1,0.4
				c0.4,0.2,0.8,0.3,1.1,0.6c1.5,0.8,2.4,2.3,3,3.8c1.1,3,1.2,6.1,1.9,9.1c0.3,1.5,0.8,2.9,1.5,4.2c0.7,1.3,1.8,2.4,3.1,3
				c1.3,0.7,2.8,0.9,4.3,0.7c1.5-0.2,2.9-0.7,4.3-1.4c2.7-1.3,5.3-3.1,7.7-4.9c2.4-1.9,4.7-3.9,6.8-6.1c2.2-2.2,4.2-4.4,6.2-6.8
				c1-1.2,1.9-2.4,2.8-3.6c0.8-1.3,1.8-2.5,2.2-4c-0.4,1.5-1.3,2.8-2.1,4.1c-0.9,1.3-1.8,2.5-2.7,3.7c-1.9,2.4-4,4.7-6.1,6.9
				c-2.1,2.2-4.4,4.3-6.8,6.2c-2.4,1.9-4.9,3.7-7.7,5.1c-1.4,0.7-2.9,1.3-4.4,1.5c-0.4,0-0.8,0.1-1.2,0.1c-0.4,0-0.8,0-1.2-0.1
				c-0.8-0.1-1.6-0.4-2.3-0.7c-1.4-0.7-2.7-1.8-3.5-3.2c-0.8-1.4-1.3-2.9-1.6-4.4c-0.7-3-0.9-6.1-2-8.9c-0.5-1.4-1.4-2.6-2.6-3.3
				c-0.3-0.2-0.6-0.3-1-0.5l-1.1-0.3c-0.3-0.1-0.7-0.2-1.1-0.2c-0.4-0.1-0.7-0.2-1.1-0.2c-3-0.3-6,0-9,0.3c-3,0.4-6.1,0.7-9.2,1
				c-3.1,0.2-6.2,0.3-9.3,0.2c-3.1-0.1-6.2-0.4-9.3-0.8c-6.1-1.2-12-3.3-17.6-6c-2.8-1.3-5.5-2.8-8.2-4.4c-2.7-1.6-5.2-3.3-7.7-5.2
				L107.6,78.2z"/>
			<g>
				<polygon class="st4" points="31.9,22.7 39.6,76 62.4,45.5 				"/>
				<polygon class="st5" points="31.9,22.7 85.1,15 62.4,45.5 				"/>
				<polygon class="st6" points="109,80.3 39.6,76 62.3,45.5 				"/>
				<polygon class="st7" points="109,80.3 85.1,15 62.3,45.5 				"/>
			</g>
		</g>
		<polygon class="st4" points="128,82.1 120.7,78.6 120.5,87.8 113.5,93.7 120.8,97.2 120.9,88 		"/>
		<polygon class="st4" points="146.1,88.2 138.5,85.7 139.5,94.8 133.3,101.6 141,104.1 140,95 		"/>
		<polygon class="st4" points="159.4,87.9 151.4,87.2 154.5,95.9 150.1,103.9 158.1,104.6 155,95.9 		"/>
		<path class="st8" d="M135,43"/>
		<path class="st9" d="M39,76c-0.6,2-0.8,4.1-0.9,6.2c0,2.1,0.2,4.2,1.2,6l0.4,0.7l0.4,0.6c0.3,0.4,0.7,0.8,1,1.3
			c0.6,0.9,1.1,1.9,1.4,3c0.6,2.1,0.5,4.4-0.5,6.4l-0.1,0c0.4-2.1,0.3-4.1-0.4-6c-0.3-0.9-0.8-1.8-1.3-2.7c-0.3-0.4-0.6-0.8-0.9-1.3
			L39,89.2l-0.3-0.7c-0.9-2-1-4.2-0.9-6.3C37.9,80.1,38.3,78,39,76L39,76z"/>
		<path class="st9" d="M57.4,113c-0.2-3.3-0.9-6.6-2-9.7c-1.2-3.1-2.9-6-5.3-8.3c-0.6-0.6-1.2-1.1-1.8-1.7c-0.6-0.6-1.2-1.2-1.8-1.8
			c-1.1-1.3-2.1-2.6-3-4.1c-1.7-2.9-3-6-3.6-9.4l-0.3-1.8l1.2,1.5c1.3,1.7,2.8,3.3,4.2,4.8c1.5,1.5,3,3,4.6,4.4
			c1.6,1.4,3.3,2.7,5.1,3.9c1.8,1.2,3.7,2.2,5.6,3.1l0,0.1c-2.1-0.7-4.1-1.6-5.9-2.7c-1.9-1.1-3.7-2.4-5.3-3.7
			c-1.7-1.4-3.3-2.8-4.8-4.4c-1.5-1.6-2.9-3.2-4.3-4.9l0.9-0.3c0.5,3.2,1.7,6.3,3.3,9.2c0.8,1.4,1.8,2.7,2.8,4
			c1.1,1.3,2.3,2.3,3.5,3.5c2.4,2.4,4,5.4,5.2,8.5c1.1,3.2,1.7,6.5,1.8,9.8H57.4z"/>
		<path class="st9" d="M124.5,41.5c-1,0.2-2.1,0.1-3.1-0.1c-1-0.2-2-0.5-3-0.9c-1.9-0.8-3.7-2-5.3-3.4c-1.5-1.4-3-2.9-4.2-4.6
			l-1-1.2l-0.9-1.3l-1.7-2.6c-2.3-3.4-5.1-6.4-8.5-8.7c-1.6-1.2-3.5-2.1-5.4-2.9c-1.9-0.7-3.9-1.2-6-1.3l0-0.1
			c2.1-0.2,4.2,0.1,6.2,0.7c2,0.6,4,1.5,5.7,2.7c3.6,2.3,6.3,5.6,8.6,9.1l1.7,2.6l0.8,1.3l0.9,1.2c1.2,1.7,2.6,3.2,4.1,4.6
			c1.5,1.4,3.2,2.6,5.1,3.5c0.9,0.4,1.9,0.8,2.9,1C122.4,41.5,123.5,41.6,124.5,41.5L124.5,41.5z"/>
		<path class="st9" d="M86.5,13.5c2.6-0.5,5.3-0.2,7.9,0.5c2.6,0.7,5,1.8,7.2,3.2l1.7,1.1l1.6,1.2c1.1,0.8,2,1.8,2.9,2.7
			c0.9,1,1.7,2,2.6,3c0.8,1.1,1.5,2.2,2.2,3.3l-0.1,0.1c-0.9-1-1.8-1.9-2.6-2.9c-0.9-0.9-1.8-1.9-2.7-2.8l-1.4-1.3l-0.7-0.7
			l-0.7-0.6l-1.5-1.3l-1.6-1.1c-2.1-1.4-4.5-2.7-6.9-3.4C91.7,13.6,89.1,13.2,86.5,13.5L86.5,13.5z"/>
		<path class="st9" d="M85.5,15.5c3.1,1.5,6,3.5,8.5,5.9c2.5,2.4,4.7,5.2,6.1,8.4l1,2.4l0.5,1.2l0.6,1.1c0.8,1.5,1.7,3,2.7,4.3
			c2,2.7,4.5,5.1,7.5,6.7l0,0.1c-3.3-1.2-6.1-3.5-8.3-6.2c-0.6-0.7-1-1.4-1.5-2.1c-0.4-0.8-0.9-1.5-1.2-2.3l-0.6-1.2l-0.5-1.2
			L99.5,30c-1.3-3.1-3.4-5.9-5.8-8.4C91.3,19.3,88.5,17.1,85.5,15.5L85.5,15.5z"/>
		<circle class="st10" cx="39.5" cy="76.5" r="1.5"/>
		<circle class="st10" cx="85.5" cy="14.5" r="1.5"/>
	</g>
</g>
<g id="Layer_1">
	<rect x="163" y="142.6" class="st11" width="231.9" height="125.2"/>
	<path class="st12" d="M387.8,295.1h23.3c7,0,12.7,5.7,12.7,12.7v20.1h-48.7v-20.1C375.1,300.7,380.8,295.1,387.8,295.1z"/>
	<path class="st12" d="M146.7,295.1H170c7,0,12.7,5.7,12.7,12.7v20.1H134v-20.1C134,300.7,139.7,295.1,146.7,295.1z"/>
	<rect x="131.5" y="327" class="st13" width="294.1" height="50.4"/>
	<rect x="170.6" y="205.6" class="st14" width="215.1" height="121.8"/>
	<circle class="st15" cx="203.3" cy="246.8" r="23.5"/>
	<circle class="st16" cx="203.2" cy="246.6" r="17.4"/>
	<circle class="st15" cx="354.6" cy="246.8" r="23.5"/>
	<circle class="st16" cx="355.2" cy="246.6" r="17.4"/>
	<path class="st12" d="M410.7,409.6h-23.3c-7,0-12.7-5.7-12.7-12.7v-20.1h48.7v20.1C423.4,403.9,417.8,409.6,410.7,409.6z"/>
	<path class="st12" d="M170,410h-23.3c-7,0-12.7-5.7-12.7-12.7v-20.1h48.7v20.1C182.7,404.3,177.1,410,170,410z"/>
	<rect x="174.8" y="142.6" class="st17" width="207.5" height="63"/>
	<rect x="131.1" y="267.8" class="st18" width="39.5" height="29.4"/>
	<rect x="386.1" y="267.3" class="st18" width="39.5" height="29.4"/>
	<rect x="158.3" y="95.5" class="st19" width="241.1" height="47"/>
	<path class="st19" d="M295,68.2l-15.9-35.1l-15.9,35.1h-37c0,0,6.4,32.6,52.7,32.6s52.7-32.6,52.7-32.6H295z"/>
	<path class="st20" d="M238.8,315.3L238.8,315.3c-3.2,0-5.9-2.6-5.9-5.9v-64.3c0-3.2,2.6-5.9,5.9-5.9h0c3.2,0,5.9,2.6,5.9,5.9v64.3
		C244.7,312.6,242.1,315.3,238.8,315.3z"/>
	<path class="st20" d="M265.1,315.6L265.1,315.6c-3.2,0-5.9-2.6-5.9-5.9v-64.3c0-3.2,2.6-5.9,5.9-5.9l0,0c3.2,0,5.9,2.6,5.9,5.9
		v64.3C271,313,268.3,315.6,265.1,315.6z"/>
	<path class="st20" d="M292.1,315.3L292.1,315.3c-3.2,0-5.9-2.6-5.9-5.9v-64.3c0-3.2,2.6-5.9,5.9-5.9l0,0c3.2,0,5.9,2.6,5.9,5.9
		v64.3C298,312.6,295.4,315.3,292.1,315.3z"/>
	<path class="st20" d="M318.4,315.6L318.4,315.6c-3.2,0-5.9-2.6-5.9-5.9v-64.3c0-3.2,2.6-5.9,5.9-5.9l0,0c3.2,0,5.9,2.6,5.9,5.9
		v64.3C324.3,313,321.7,315.6,318.4,315.6z"/>
	<path class="st21" d="M153.3,191.7c-0.8-0.9-1.3-1.9-1.3-3c5.2-0.6,9.3-5,9.3-10.4v-25.2c0-5.2-3.8-9.5-8.8-10.3
		c1.5-3.1,6.1-4.2,6.1-4.3l-0.8-3.3c-0.3,0.1-7.4,1.9-8.9,7.5c-4.9,0.9-8.6,5.2-8.6,10.3v25.2c0,5.1,3.6,9.3,8.4,10.3
		c0,2,0.7,3.8,2.2,5.4c6,6.5,23.2,6.6,23.9,6.6v-3.4C170.2,197.2,157.5,196.2,153.3,191.7z"/>
	<path class="st21" d="M404.5,191.7c0.8-0.9,1.3-1.9,1.3-3c-5.2-0.6-9.3-5-9.3-10.4v-25.2c0-5.2,3.8-9.5,8.8-10.3
		c-1.5-3.1-6.1-4.2-6.1-4.3l0.8-3.3c0.3,0.1,7.4,1.9,8.9,7.5c4.9,0.9,8.6,5.2,8.6,10.3v25.2c0,5.1-3.6,9.3-8.4,10.3
		c0,2-0.7,3.8-2.2,5.4c-6,6.5-23.2,6.6-23.9,6.6v-3.4C387.7,197.2,400.4,196.2,404.5,191.7z"/>
	<g>
		<path class="st22" d="M178.7,108.6l4.9,20c-1.4,0.3-2.7,0.2-3.9-0.5c-1.2-0.7-2-1.6-2.3-2.9l-0.2-1.1l-0.1-0.5h-4.8l-0.1,0.5
			l-0.3,1.1c-0.3,1.3-1.1,2.2-2.3,2.9c-1.2,0.7-2.5,0.8-3.9,0.5l5-20c0.3-1.2,1-2.1,2.1-2.7c0.6-0.3,1.2-0.5,1.9-0.5
			c0.7,0,1.3,0.2,1.9,0.5C177.8,106.5,178.4,107.4,178.7,108.6z M173.2,119.4h3.1l-1.5-7.5L173.2,119.4z"/>
		<path class="st22" d="M200.7,120.9l4.6,6.9c-1.2,0.8-2.4,1.1-3.7,0.8c-1.3-0.2-2.3-1-3.1-2.1l-3.1-4.6h-2.3v0.2
			c0,1.8-0.6,3.4-1.7,4.7c-1.1,1.3-2.4,1.9-4,1.9v-18.4c0-1.5,0.6-2.7,1.7-3.8c1.1-1.1,2.4-1.6,3.7-1.6h3.4c1.3,0,2.5,0.2,3.5,0.6
			c1.1,0.4,2,0.9,2.7,1.6c0.7,0.7,1.3,1.6,1.7,2.6c0.4,1,0.6,2.2,0.6,3.5v0c0,1.4-0.2,2.6-0.7,3.7c-0.4,1.1-1,2-1.8,2.7
			C201.9,120.2,201.3,120.6,200.7,120.9z M193.2,110.4v6.3h2.7c1,0,1.8-0.3,2.4-0.8c0.6-0.6,0.9-1.3,0.9-2.3v-0.1
			c0-1-0.3-1.8-0.9-2.3c-0.6-0.5-1.4-0.8-2.4-0.8H193.2z"/>
		<path class="st22" d="M221.6,108.6l4.9,20c-1.4,0.3-2.7,0.2-3.9-0.5c-1.2-0.7-2-1.6-2.3-2.9l-0.2-1.1l-0.1-0.5h-4.8l-0.1,0.5
			l-0.3,1.1c-0.3,1.3-1.1,2.2-2.3,2.9c-1.2,0.7-2.5,0.8-3.9,0.5l5-20c0.3-1.2,1-2.1,2.1-2.7c0.6-0.3,1.2-0.5,1.9-0.5
			c0.7,0,1.3,0.2,1.9,0.5C220.6,106.5,221.3,107.4,221.6,108.6z M216.1,119.4h3.1l-1.5-7.5L216.1,119.4z"/>
		<path class="st22" d="M244.9,110.4c0-1.4,0.5-2.6,1.5-3.6s2.2-1.5,3.7-1.5v18.4c0,1.4-0.5,2.6-1.5,3.6c-1,1-2.2,1.5-3.6,1.5V127
			l-9.5-12.6v9.4c0,1.4-0.5,2.6-1.5,3.6c-1,1-2.2,1.5-3.6,1.5v-18.4c0-1.4,0.5-2.6,1.5-3.6c1-1,2.2-1.5,3.6-1.5l9.4,13.6V110.4z"/>
		<path class="st22" d="M255.5,125.6c-0.3-0.6-0.4-1.3-0.4-2v-13.3c0,0,0,0,0-0.1h0c0-1.5,0.4-2.6,1.2-3.5c0.8-0.9,1.9-1.4,3.2-1.4
			h10v1.3c0,1.2-0.4,2.2-1.2,3c-0.8,0.8-1.8,1.2-3.1,1.2v-0.6h-3.4c-0.3,0-0.7,0.2-0.9,0.4c-0.3,0.3-0.4,0.6-0.5,0.9
			c0,0.1,0,0.2,0,0.2v1.6c0,0.1,0,0.1,0,0.2v8.7c0.1,0.4,0.2,0.7,0.5,0.9c0.2,0.2,0.6,0.4,0.9,0.4h5.3v-3.5c0-0.1,0-0.3,0-0.5
			c-1.1-0.2-1.9-0.7-2.5-1.4c-0.6-0.7-0.9-1.7-0.9-3h4.9c0.4,0,0.9,0.1,1.2,0.2c0.4,0.1,0.7,0.3,0.9,0.4c0.2,0.2,0.4,0.4,0.6,0.7
			c0.2,0.3,0.3,0.5,0.3,0.8c0.1,0.2,0.1,0.5,0.2,0.9c0,0.4,0.1,0.6,0.1,0.8c0,0.2,0,0.5,0,0.8c0,0.3,0,0.5,0,0.6l0,3.6
			c0,0.6-0.1,1.1-0.3,1.7c-0.2,0.5-0.5,1-0.8,1.4c-0.3,0.4-0.8,0.7-1.2,1c-0.5,0.3-1,0.4-1.5,0.5l-7.8,0c-1.1-0.1-2.1-0.5-3-1.1
			C256.4,127,255.9,126.4,255.5,125.6z"/>
		<path class="st22" d="M287.9,117.4l6.4,10.6c-0.8,0.5-1.6,0.7-2.5,0.8c-0.9,0-1.8-0.1-2.6-0.5c-0.8-0.4-1.4-1-1.9-1.7l-4.1-6.9
			c-0.3,0.1-0.6,0.1-0.9,0.1v3.9c0,1.4-0.5,2.5-1.6,3.5c-1.1,1-2.3,1.5-3.8,1.5v-18.8c0-1.4,0.5-2.5,1.6-3.5c1.1-1,2.3-1.4,3.8-1.4
			v10l4.5-7.7c0.7-1.2,1.6-1.9,2.8-2.2c1.2-0.3,2.4,0,3.7,0.7l-6.2,10.7C287.3,116.5,287.6,116.9,287.9,117.4z"/>
		<path class="st22" d="M310.4,108.6l4.9,20c-1.4,0.3-2.7,0.2-3.9-0.5c-1.2-0.7-2-1.6-2.3-2.9l-0.2-1.1l-0.1-0.5H304l-0.1,0.5
			l-0.3,1.1c-0.3,1.3-1.1,2.2-2.3,2.9c-1.2,0.7-2.5,0.8-3.9,0.5l5-20c0.3-1.2,1-2.1,2.1-2.7c0.6-0.3,1.2-0.5,1.9-0.5
			c0.7,0,1.3,0.2,1.9,0.5C309.4,106.5,310.1,107.4,310.4,108.6z M304.8,119.4h3.1l-1.5-7.5L304.8,119.4z"/>
		<path class="st23" d="M327.6,105.1c1.6,0,3.1,0.3,4.4,1c1.3,0.7,2.3,1.7,3.1,3c0.8,1.3,1.1,2.9,1.1,4.6v7.3c0,1.4-0.4,2.7-1.1,4
			c-0.7,1.2-1.8,2.2-3.1,2.9c-1.3,0.7-2.8,1.1-4.4,1.1h-8.3h0h0v-18.7c0-1.3,0.4-2.5,1.3-3.5c0.9-1,2-1.5,3.3-1.6v0h0.6h0H327.6z
			 M331.2,120.1v-6.3c0-1-0.4-1.9-1.1-2.6c-0.7-0.7-1.5-1.1-2.5-1.1h-3.2v13.6c0,0,0,0,0,0.1c0,0,0,0,0,0.1h3.2c1,0,1.8-0.4,2.5-1.1
			C330.9,122,331.2,121.1,331.2,120.1z"/>
		<path class="st23" d="M351.7,108.6l4.9,20c-1.4,0.3-2.7,0.2-3.9-0.5c-1.2-0.7-2-1.6-2.3-2.9l-0.2-1.1l-0.1-0.5h-4.8l-0.1,0.5
			l-0.3,1.1c-0.3,1.3-1.1,2.2-2.3,2.9c-1.2,0.7-2.5,0.8-3.9,0.5l5-20c0.3-1.2,1-2.1,2.1-2.7c0.6-0.3,1.2-0.5,1.9-0.5
			s1.3,0.2,1.9,0.5C350.7,106.5,351.4,107.4,351.7,108.6z M346.1,119.4h3.1l-1.5-7.5L346.1,119.4z"/>
		<path class="st23" d="M361.7,105.5h13.4c0,1.5-0.5,2.7-1.5,3.7c-1,0.9-2.2,1.4-3.6,1.4h-1.5v13.2c0,1.4-0.5,2.6-1.6,3.6
			c-1.1,1-2.4,1.5-3.9,1.5v-18.2h-6.5c0-1.5,0.5-2.7,1.4-3.6C359.1,105.9,360.3,105.5,361.7,105.5z"/>
		<path class="st23" d="M387.2,108.6l4.9,20c-1.4,0.3-2.7,0.2-3.9-0.5c-1.2-0.7-2-1.6-2.3-2.9l-0.2-1.1l-0.1-0.5h-4.8l-0.1,0.5
			l-0.3,1.1c-0.3,1.3-1.1,2.2-2.3,2.9c-1.2,0.7-2.5,0.8-3.9,0.5l5-20c0.3-1.2,1-2.1,2.1-2.7c0.6-0.3,1.2-0.5,1.9-0.5
			c0.7,0,1.3,0.2,1.9,0.5C386.2,106.5,386.9,107.4,387.2,108.6z M381.7,119.4h3.1l-1.5-7.5L381.7,119.4z"/>
	</g>
	<polygon class="st22" points="158.3,124.8 168,138.4 389.8,138.4 399.4,127.2 399.4,142.6 158,142.6 	"/>
	<polygon class="st22" points="263,68.6 278.9,33.3 294.9,68.6 280.6,95.5 	"/>
	<g>
		<path class="st24" d="M127.7,319.6c0-14.6-11.8-26.4-26.4-26.4c-4.4,0-8.5,1.1-12.2,3c-4.8-5.9-12.2-9.7-20.5-9.7
			c-6.3,0-12.2,2.2-16.7,5.9c-2.9-5.2-8.4-8.8-14.8-8.8c-0.1,0-0.2,0-0.3,0c-1.1-4.8-5.5-8.4-10.7-8.4c-6.1,0-11,4.9-11,11
			c0,4.2,2.3,7.8,5.7,9.6c-0.4,1.5-0.7,3.1-0.7,4.7c0,8.3,6,15.3,14,16.6c-2.1,3-3.3,6.7-3.3,10.7c0,10.4,8.4,18.8,18.8,18.8
			c2.5,0,4.9-0.5,7.1-1.4c-0.4,1.7-0.6,3.5-0.6,5.3c0,12.7,10.3,23.1,23.1,23.1c6.2,0,11.9-2.5,16-6.5c2.8,1.3,6,2,9.3,2
			c12.7,0,23.1-10.3,23.1-23.1c0-4.7-1.4-9.1-3.8-12.7C126.3,329.3,127.7,324.6,127.7,319.6z"/>
		<path class="st24" d="M30.7,269.5c1.9,0,3.7-0.7,5.1-1.9c1.3,1.2,3.1,1.9,5.1,1.9c4.2,0,7.6-3.4,7.6-7.6c0-4.2-3.4-7.6-7.6-7.6
			c-0.1,0-0.2,0-0.4,0c0-0.3,0.1-0.6,0.1-0.9c0-3-2.4-5.3-5.3-5.3c-3,0-5.3,2.4-5.3,5.3c0,0.3,0,0.6,0.1,0.9
			c-3.8,0.4-6.8,3.6-6.8,7.6C23.1,266.1,26.5,269.5,30.7,269.5z"/>
		<circle class="st24" cx="5.3" cy="251.3" r="5.3"/>
	</g>
	<path class="st25" d="M89,296c0,0,22-3,28,11s0,24,0,24s5,16-1,24s-22,1-22,1s-6,14-20,9s-16-23-16-23s-8,6-19,1c0,0,12,7,17,2
		c0,0-1,15,6,21s20,13,33,1c0,0,15,8,28-7s0-27,0-27s14-16-4-33S89,296,89,296z"/>
	<polygon class="st26" points="248.6,142.7 239.1,205.6 246.4,205.6 255.6,142.7 	"/>
	<polygon class="st26" points="263,142.7 253.1,205.6 297,205.6 307,142.7 	"/>
	<polygon class="st26" points="311.6,142.7 302.1,205.6 309.4,205.6 318.6,142.7 	"/>
	<rect x="221" y="333" class="st27" width="118" height="38"/>
	<g>
		<path class="st26" d="M273.3,356.3c0.4,0.3,0.6,0.8,0.6,1.4c0,1.2-0.7,1.9-2.2,1.9h-1.9v2.9c0,0.8-0.2,1.4-0.7,1.8s-1,0.6-1.7,0.6
			c-0.7,0-1.3-0.2-1.7-0.6s-0.7-1-0.7-1.8v-2.9h-9.7c-0.7,0-1.2-0.2-1.6-0.6c-0.4-0.4-0.6-0.9-0.6-1.4c0-0.6,0.2-1.2,0.6-1.7
			l11.5-16.5c0.2-0.3,0.6-0.6,0.9-0.8c0.4-0.2,0.8-0.3,1.2-0.3c0.6,0,1.2,0.2,1.7,0.6c0.5,0.4,0.7,1,0.7,1.8v15.2h1.9
			C272.4,355.8,273,356,273.3,356.3z M258.2,355.8h6.9v-10L258.2,355.8z"/>
		<path class="st26" d="M278.5,361.6c-1.6-2.3-2.5-5.6-2.5-10c0-4.4,0.8-7.7,2.5-10c1.6-2.3,4-3.4,7.1-3.4c3.1,0,5.5,1.1,7.1,3.4
			c1.6,2.3,2.5,5.6,2.5,10c0,4.4-0.8,7.7-2.5,10c-1.6,2.3-4,3.5-7.1,3.5C282.5,365,280.2,363.9,278.5,361.6z M289.3,359
			c0.8-1.5,1.2-4,1.2-7.4c0-3.4-0.4-5.9-1.2-7.4c-0.8-1.5-2-2.3-3.7-2.3c-1.7,0-2.9,0.8-3.7,2.3s-1.2,4-1.2,7.4
			c0,3.4,0.4,5.8,1.2,7.4c0.8,1.5,2,2.3,3.7,2.3C287.3,361.3,288.5,360.5,289.3,359z"/>
		<path class="st26" d="M318,356.3c0.4,0.3,0.6,0.8,0.6,1.4c0,1.2-0.7,1.9-2.2,1.9h-1.9v2.9c0,0.8-0.2,1.4-0.7,1.8s-1,0.6-1.7,0.6
			c-0.7,0-1.3-0.2-1.7-0.6s-0.7-1-0.7-1.8v-2.9H300c-0.7,0-1.2-0.2-1.6-0.6c-0.4-0.4-0.6-0.9-0.6-1.4c0-0.6,0.2-1.2,0.6-1.7
			l11.5-16.5c0.2-0.3,0.6-0.6,0.9-0.8c0.4-0.2,0.8-0.3,1.2-0.3c0.6,0,1.2,0.2,1.7,0.6c0.5,0.4,0.7,1,0.7,1.8v15.2h1.9
			C317,355.8,317.6,356,318,356.3z M302.8,355.8h6.9v-10L302.8,355.8z"/>
	</g>
	<polygon class="st28" points="275,332 340,372 340,332 	"/>
	<path class="st25" d="M39.3,250.1c0,0,1.7,2.9-0.3,5.9c0,0,8,1,7,8s-7.5,5.2-7.5,5.2s6.3,1.9,9.4-4.7c3.1-6.5-4.1-10.3-7.3-10.2
		C40.6,254.4,40,250.7,39.3,250.1z"/>
	<path class="st25" d="M8.8,247.2c0,0,2.2,4.8,0.2,6.8s-3.8,3.2-5.9,2.1c0,0,3.9,1.7,6.9-2.2C10,253.9,12.6,250.4,8.8,247.2z"/>
</g>
</svg>
