<?xml version="1.0" encoding="utf-8"?>
<!-- Generator: Adobe Illustrator 23.0.1, SVG Export Plug-In . SVG Version: 6.00 Build 0)  -->
<svg version="1.1" xmlns="http://www.w3.org/2000/svg" xmlns:xlink="http://www.w3.org/1999/xlink" x="0px" y="0px"
	 viewBox="0 0 1366 768" style="enable-background:new 0 0 1366 768;" xml:space="preserve">
<style type="text/css">
	.st0{fill:#E7EAED;}
	.st1{opacity:0.46;fill:#1E1E1E;}
	.st2{fill:#5240FF;}
	.st3{fill:#FFFFFF;stroke:#A9DEFF;stroke-width:2;stroke-miterlimit:10;}
	.st4{fill:#8AD8FF;}
	.st5{fill:#F2EFE9;}
	.st6{fill:none;stroke:#FCD6A4;stroke-width:5;stroke-miterlimit:10;}
	.st7{fill:none;stroke:#FCD6A4;stroke-miterlimit:10;}
	.st8{fill:#BDF9D7;}
	.st9{fill:#257545;}
	.st10{opacity:0.56;fill:#5FD2FF;stroke:#0000F9;stroke-miterlimit:10;}
	.st11{fill:none;stroke:#000000;stroke-width:0.25;stroke-miterlimit:10;}
	.st12{fill:#3DBBC1;}
	.st13{fill:#FFFFFF;stroke:#A9DEFF;stroke-miterlimit:10;}
	.st14{fill:#A7C3D8;}
	.st15{fill:#769BB2;}
	.st16{fill:none;stroke:#5E7684;stroke-miterlimit:10;}
	.st17{fill:#5E7684;}
	.st18{fill:#5E7684;stroke:#5E7684;stroke-miterlimit:10;}
	.st19{fill:none;stroke:#A9DEFF;stroke-width:3;stroke-miterlimit:10;}
	.st20{fill:#D6D6D6;}
	.st21{fill:#D5D8CA;}
	.st22{fill:#1C1C1C;}
	.st23{fill:#515151;}
	.st24{fill:#9B9B9B;}
	.st25{fill:#E0E0E0;}
	.st26{fill:#1E647C;}
	.st27{opacity:0.62;fill:#0C0C0C;}
	.st28{fill:#E8E8E8;}
	.st29{fill:#3C74A0;}
	.st30{fill:#9CF447;}
	.st31{fill:#FFF312;}
	.st32{fill:#2E5B7A;}
	.st33{fill:#6FAFD1;}
	.st34{fill:#030F16;}
	.st35{fill:#072333;}
	.st36{fill:#17455E;}
	.st37{fill:#216989;}
	.st38{fill:#1B4E70;}
	.st39{fill:#3998B2;}
	.st40{fill:#E8EED9;}
	.st41{fill:#DFEBF4;}
	.st42{fill:#041F26;}
	.st43{fill:#3FACC9;}
	.st44{fill:#112356;}
	.st45{fill:#65AE22;}
	.st46{fill:#282828;}
	.st47{fill:#6F8EBD;}
	.st48{fill:#110D10;}
	.st49{fill:#51322D;}
	.st50{fill:#895959;}
	.st51{fill:#5574A2;}
	.st52{fill:#9BB7E0;}
	.st53{fill:#212120;}
	.st54{fill:#A57672;}
	.st55{fill:#603737;}
	.st56{fill:#5D78A0;}
	.st57{fill:#3DE200;}
	.st58{fill:#FF4200;}
	.st59{fill:#D3D3D3;}
	.st60{fill:#596045;}
	.st61{fill:#1D5360;}
	.st62{fill:#123D49;}
	.st63{fill:#111111;}
	.st64{fill:#93EF4B;stroke:#000000;stroke-width:3;stroke-miterlimit:10;}
	.st65{fill:#1E1E1E;}
	.st66{fill:#161616;}
	.st67{opacity:0.62;fill:#FFFFFF;}
	.st68{opacity:0.57;}
	.st69{opacity:0.38;fill:#E8EED9;}
	.st70{fill:#FFFFFF;}
	.st71{fill:#F7D7F0;}
</style>
<g id="Layer_2">
	<path class="st0" d="M0,768c0,0-1-67,309-90s196-214,354-242s207-113,267-205c44.8-68.7,442,10,436-231v768H0z"/>
	<path class="st1" d="M680.6,612.4c0,0-209,32.3-208.2,79.9c0.8,47.6,265.5,95.2,514,30.7s289.7-118.6,265.5-153.3
		c-24.2-34.7-87.1-71.8-183.2-39.5S680.6,612.4,680.6,612.4z"/>
	<g>
		<g>
			<g>
				<g>
					<path class="st2" d="M1016.6,191.7c-0.3-21.3-17.8-38.3-39.1-38c-21.3,0.3-38.3,17.8-38,39.1c0.1,5.9,1.5,11.5,3.9,16.4l0,0
						l0.2,0.3c0.8,1.6,1.8,3.2,2.8,4.7l32.7,54.9l31.2-55.8c1-1.5,1.9-3.1,2.7-4.8l0.2-0.4l0,0
						C1015.4,203.2,1016.7,197.6,1016.6,191.7z M978.4,203.2c-5.6,0.1-10.2-4.4-10.2-9.9c-0.1-5.6,4.4-10.2,9.9-10.2
						c5.6-0.1,10.2,4.4,10.2,9.9C988.4,198.5,984,203.1,978.4,203.2z"/>
				</g>
			</g>
		</g>
	</g>
	<g>
		<path class="st3" d="M1332.3,178.1l-177.4-7.2c-7-0.3-12.4-6.1-12.1-13.1l4-97.7c0.3-7,6.1-12.4,13.1-12.1l177.4,7.2
			c7,0.3,12.4,6.1,12.1,13.1l-4,97.7C1345.1,173,1339.3,178.4,1332.3,178.1z"/>
		
			<rect x="1162.8" y="86.3" transform="matrix(0.9992 4.050464e-02 -4.050464e-02 0.9992 6.2946 -50.3274)" class="st4" width="164.8" height="87.7"/>
		<path class="st5" d="M1232.8,85.8l-6.1,10.5l-18.9,16.9l-1.4,7.4l1.9,6.5l-4.5,6.2l-7.4,9.9c0,0-8.8,5.5-8.8,6.1
			c0,0.5-5.2,9.4-5.2,9.4l-2.5,9l-9.6,3.4l155.4,6.3l3.6-87.7L1232.8,85.8z"/>
		<polyline class="st6" points="1275.5,95.5 1270.7,132.8 1248,174.2 		"/>
		<path class="st3" d="M1243.2,98.5"/>
		<path class="st6" d="M1237.6,99.6l37.9,2.6l41.3-2.6l-4.3,40l-6.4,35.9l-57.1-2.9l7.3-15.1c0,0,31.8,2.5,48.4,2.6l2.8-15.4
			l-41.1-3.8c0,0-31.3-6.6-31.1-13c0.3-6.4,2.2-28.8,2.2-28.8"/>
		<polyline class="st7" points="1273.1,114.2 1298.8,115.2 1311.2,110.9 		"/>
		<polyline class="st7" points="1272.6,127.5 1297.7,129.1 1299.1,120.6 1286.8,120.1 1285.9,127.5 		"/>
		<path class="st8" d="M1228.9,135.9l-18.5,33.5l34.2,1.4l15-26.7C1259.6,144.1,1240.9,142.3,1228.9,135.9z"/>
		<path class="st9" d="M1240.3,104.3l-0.5,11.8c0,0,28.7,5.6,28.8,2.2c0.1-1.6,0.5-11.8,0.5-11.8L1240.3,104.3z"/>
		<circle class="st10" cx="1271.7" cy="128.3" r="5.3"/>
		<circle class="st10" cx="1273.1" cy="113.6" r="3.5"/>
		<circle class="st10" cx="1274.5" cy="119.6" r="3.5"/>
		<circle class="st10" cx="1273.4" cy="107.8" r="2.4"/>
		<circle class="st10" cx="1265.2" cy="144.1" r="7.5"/>
		<circle class="st10" cx="1254.9" cy="160.8" r="3.2"/>
		
			<rect x="1192.2" y="74.1" transform="matrix(0.9992 4.050464e-02 -4.050464e-02 0.9992 4.164 -50.457)" class="st11" width="110.2" height="7"/>
		<circle class="st12" cx="1160.8" cy="58.2" r="2.7"/>
		<circle class="st12" cx="1168.3" cy="58.5" r="2.7"/>
		
			<rect x="1180.5" y="58.8" transform="matrix(0.9992 4.050464e-02 -4.050464e-02 0.9992 3.5061 -50.1714)" class="st12" width="118.8" height="5.3"/>
	</g>
	<g>
		<path class="st13" d="M1328.2,330.8L1067.8,286c-6.1-1.1-10.3-6.9-9.2-13l19.5-113.7c1.1-6.1,6.9-10.3,13-9.2l260.5,44.8
			c6.1,1.1,10.3,6.9,9.2,13l-19.5,113.7C1340.2,327.7,1334.4,331.8,1328.2,330.8z"/>
		
			<rect x="1079" y="276.1" transform="matrix(0.9855 0.1694 -0.1694 0.9855 63.0327 -179.9651)" class="st14" width="13.8" height="6.4"/>
		
			<rect x="1116.2" y="282.5" transform="matrix(0.9855 0.1694 -0.1694 0.9855 64.6524 -186.1681)" class="st14" width="13.8" height="6.4"/>
		
			<rect x="1154.2" y="289" transform="matrix(0.9855 0.1694 -0.1694 0.9855 66.3115 -192.5225)" class="st14" width="13.8" height="6.4"/>
		
			<rect x="1190.5" y="295.3" transform="matrix(0.9855 0.1694 -0.1694 0.9855 67.8916 -198.5742)" class="st14" width="13.8" height="6.4"/>
		<path class="st14" d="M1336.4,224.9l-78.7-13.5c-2-0.3-3.4-2.3-3-4.3l0.3-1.7c0.3-2,2.3-3.4,4.3-3l78.7,13.5c2,0.3,3.4,2.3,3,4.3
			l-0.3,1.7C1340.3,223.9,1338.4,225.2,1336.4,224.9z"/>
		<path class="st14" d="M1333.3,243l-78.7-13.5c-2-0.3-3.4-2.3-3-4.3l0.3-1.7c0.3-2,2.3-3.4,4.3-3l78.7,13.5c2,0.3,3.4,2.3,3,4.3
			l-0.3,1.7C1337.2,242,1335.3,243.4,1333.3,243z"/>
		<path class="st14" d="M1306.6,257.1l-55.2-9.5c-2-0.3-3.4-2.3-3-4.3l0.3-1.7c0.3-2,2.3-3.4,4.3-3l55.2,9.5c2,0.3,3.4,2.3,3,4.3
			l-0.3,1.7C1310.6,256.1,1308.6,257.4,1306.6,257.1z"/>
		<g>
			<path class="st14" d="M1286.5,315.7c-14.1-2.4-23.6-15.9-21.2-30c2.4-14.1,15.9-23.6,30-21.2c14.1,2.4,23.6,15.9,21.2,30
				C1314.1,308.6,1300.7,318.1,1286.5,315.7z M1294.3,270.8c-10.6-1.8-20.7,5.3-22.6,15.9c-1.8,10.6,5.3,20.7,15.9,22.6
				s20.7-5.3,22.6-15.9C1312,282.8,1304.9,272.7,1294.3,270.8z"/>
		</g>
		<path class="st15" d="M1299.3,265.5l-2.3,6c0,0,5.8,2.2,8.1,5.1l4.8-4.2C1310,272.4,1306.9,268.1,1299.3,265.5z"/>
		<line class="st16" x1="1086.8" y1="271.5" x2="1093.5" y2="232.6"/>
		<line class="st16" x1="1124.4" y1="278" x2="1140.3" y2="185.6"/>
		<line class="st16" x1="1162.5" y1="284.5" x2="1180.5" y2="179.4"/>
		<circle class="st17" cx="1086.2" cy="185.1" r="3.7"/>
		<circle class="st17" cx="1081.5" cy="215.6" r="3.7"/>
		<circle class="st17" cx="1076.2" cy="246.4" r="3.7"/>
		<line class="st18" x1="1198.2" y1="290.7" x2="1208.2" y2="232.7"/>
		<path class="st19" d="M1082.2,270.9c0,0,5-39.1,21.4-40.5c15.6-1.4,21.2-38.8,35.8-37.6c13.8,1.1,30.8-7.6,39.1-6.7
			c8.2,0.8,17,49.6,26.5,53.1c9.5,3.5,14.4,14.6,14.4,14.6"/>
	</g>
	<path class="st20" d="M1366.1,408.1c0,0,23.8,359.9-260.6,359.9H1366L1366.1,408.1z"/>
</g>
<g id="Layer_1">
	
		<image style="display:none;overflow:visible;" width="1024" height="681" xlink:href="DB5839DA.jpg"  transform="matrix(1.1074 0 0 1.1074 130 1)">
	</image>
	<path d="M688.7,647.6l-2-16.4l10.5-2.4c0,0-20.2-67.8,4.8-75c25-7.3,129.1-37.1,146.9-29c17.8,8.1,55.7,30.7,57.3,46.8
		s20.2,31.5,23.4,31.5c3.2,0,39.5-8.1,39.5-8.1l-2.8,9.3c0,0-90.6,15.1-102.8,24.3c-12.2,9.2-176.8,18.9-176.8,18.9"/>
	<g>
		<g>
			<polygon class="st21" points="1093.8,339.5 1093.8,412.9 1160.8,412.9 1160.8,343.5 			"/>
			<polygon class="st21" points="1176.5,344.7 1176.5,412.5 1230.6,412.5 1230.6,346.3 			"/>
			<polygon class="st21" points="1246.7,347.9 1246.7,412.5 1295.1,412.5 1295.1,351.2 			"/>
		</g>
	</g>
	<g>
		<polygon points="1253.9,535.3 1265.5,533.3 1251.1,503.3 1212.4,504.9 1197.1,525 1197.1,528.3 		"/>
		<path class="st22" d="M1241.9,519.3c0,0-35.1-24.9-58.5,14.7c-23.4,39.5-7.3,96.8,5.6,104.1s54.1,4.8,58.1-10.5
			C1249.9,616.8,1264.9,555.4,1241.9,519.3z"/>
		<path class="st23" d="M1262.8,579.9c0,32.3-13.8,53.6-29,58.5c-25,8.1-41.4-26.3-38.7-58.5c4-48.8,22.7-63.3,38.7-63.3
			S1262.8,547.6,1262.8,579.9z"/>
		<path class="st24" d="M1251.1,582.1c0,19.9-8.5,32.9-17.9,36c-15.4,5-25.4-16.2-23.8-36c2.5-30,13.9-38.9,23.8-38.9
			C1243.1,543.2,1251.1,562.3,1251.1,582.1z"/>
		<path class="st25" d="M1240.2,585.3c0,6.3-2.7,10.4-5.6,11.3c-4.8,1.6-8-5.1-7.5-11.3c0.8-9.4,4.4-12.3,7.5-12.3
			C1237.7,573.1,1240.2,579.1,1240.2,585.3z"/>
	</g>
	<path class="st26" d="M902.2,501.2l-10.5-8.1l47.6,115.4l260.6-46c0,0-4-50.8,25-50c29,0.8,23.4-3.2,37.1,22.6
		c13.7,25.8,82.3,6.5,82.3,6.5v-44.4h-21l-1.6-41.2l4.8-8.9v-34.7h-21.8V352l-9.7-0.8v61.3h-48.4v-64.6l-16.1-1.6v66.2h-54.1v-67.8
		l-15.3-1.6v69.4h-67v-73.4l-39.5-1.6l6.5,195.3c0,0-113.9,9.7-123.5-25C928,473,902.2,501.2,902.2,501.2z"/>
	<path class="st27" d="M944.5,335.4l110.5,2.4l5.6,184.8l-79.1,4.8c0,0-29,4-29.9-35.5C951,452.4,944.5,335.4,944.5,335.4z"/>
	<g>
		<path class="st22" d="M835.2,570c0,0-45.6-24-83.5,21.2c-37.9,45.2-21.8,138,15.3,150.9c37.1,12.9,71.4-8.1,83.7-30.7
			C863,688.8,881.6,605.3,835.2,570z"/>
		<path class="st23" d="M819.8,568.2c0,0-64.6,12.1-58.1,113s102.5,53.3,105.7-14.5C870.7,598.9,843.2,561.8,819.8,568.2z"/>
		<path class="st24" d="M848.9,657.4c0,29.2-19.7,52.9-37.1,52.9c-17.4,0-25.8-23.7-25.8-52.9c0-29.2,19.7-54.5,37.1-54.5
			C840.5,602.9,848.9,628.2,848.9,657.4z"/>
		<path class="st28" d="M831.3,661c0,8.7-5.9,15.7-11,15.7c-5.2,0-7.7-7-7.7-15.7s5.9-16.2,11-16.2
			C828.8,644.9,831.3,652.4,831.3,661z"/>
	</g>
	<path class="st29" d="M572.5,569.4c0,0-21.8-113.8,21.8-113.8s80.7-1,80.7-1s35-5.7,35.5,22c0.5,26.6,0,38.7,0,38.7
		s-21.8,12.9-16.1,64.6L572.5,569.4z"/>
	<ellipse class="st30" cx="593.5" cy="486.3" rx="11.3" ry="15.3"/>
	<ellipse class="st30" cx="692.8" cy="486.3" rx="11.3" ry="15.3"/>
	<ellipse class="st31" cx="593.5" cy="486.5" rx="7.3" ry="9.9"/>
	<ellipse class="st31" cx="692.8" cy="486.5" rx="7.3" ry="9.9"/>
	<path d="M615.7,553.3L615.7,553.3c-1.6,0-2.8-1.3-2.8-2.8v-37.9c0-1.6,1.3-2.8,2.8-2.8l0,0c1.6,0,2.8,1.3,2.8,2.8v37.9
		C618.5,552,617.3,553.3,615.7,553.3z"/>
	<path d="M627.4,553.7L627.4,553.7c-1.6,0-2.8-1.3-2.8-2.8v-37.9c0-1.6,1.3-2.8,2.8-2.8l0,0c1.6,0,2.8,1.3,2.8,2.8v37.9
		C630.2,552.4,629,553.7,627.4,553.7z"/>
	<path d="M638.7,553.7L638.7,553.7c-1.6,0-2.8-1.3-2.8-2.8v-37.9c0-1.6,1.3-2.8,2.8-2.8l0,0c1.6,0,2.8,1.3,2.8,2.8v37.9
		C641.5,552.4,640.3,553.7,638.7,553.7z"/>
	<path d="M650,553.7L650,553.7c-1.6,0-2.8-1.3-2.8-2.8v-37.9c0-1.6,1.3-2.8,2.8-2.8l0,0c1.6,0,2.8,1.3,2.8,2.8v37.9
		C652.8,552.4,651.6,553.7,650,553.7z"/>
	<path class="st32" d="M497.5,584c0,0-0.8,5.6,76.7,12.1s105.7,10.5,121,1.6c0,0,3.2-2.4,6.5,32.3c0,0-11.3,8.1-57.3,4.8
		c-46-3.2-117-11.3-146.9-23.4C497.5,611.4,495.1,599.3,497.5,584z"/>
	<path class="st22" d="M554.1,688.7c0,0,6.3,16.3,29.7,16.3s22.6-16.1,22.6-16.1l-39.5-10.5L554.1,688.7z"/>
	<path class="st33" d="M500.7,621.1c0,0,7.3,0.8,4,33.9c-3.2,33.1,21,21.8,24.2,25c3.2,3.2,18.6,11.3,35.5,8.1
		c16.9-3.2-0.8,12.1,36.3,9.7s27.4,10.5,46,8.9c18.6-1.6,17.8,11.3,26.6,9.7c8.9-1.6,16.9-34.7,14.5-75c0,0-132.3-4.8-187.2-25
		V621.1z"/>
	<path class="st34" d="M499.9,612.3l0.8,3.9c0,0,50.8,20.2,188,25v-8.1c0,0-13.7,5.2-67-0.2S544.2,624.5,499.9,612.3z"/>
	<path class="st35" d="M710.5,515.4c0,0-0.8-11.9,11.3-11.9c12.1,0,166.2-16.5,179.9-1.8C914.3,515,748,529,710.5,515.4z"/>
	<path class="st36" d="M496.3,584.4c0,0,22.6-10.5,48.4-11.3c25.8-0.8,27.4-4,27.4-4l120.6,10.8l2.8,18.3c0,0-6.6,6.9-46.9,4.1
		C615.7,599.8,504.4,593.2,496.3,584.4z"/>
	<path class="st37" d="M710.5,515.4c0,0-25.5,11.6-15.3,82.3c0,0-3.2-42,41.2-43.6c44.4-1.6,83.1-27.4,120.2-13.7
		c37.1,13.7,38.7,27.4,42,34.7c3.2,7.3,10.5,28.2,29,34.7c18.6,6.5,9.7-17.8,9.7-17.8s4.8,23.4-3.2-12.1
		c-8.1-35.5-31.5-78.3-31.5-78.3s2.6,8.3-44.7,12.6C810.6,518.6,726.7,522.6,710.5,515.4z"/>
	<path class="st38" d="M587.1,456.9c2.4-0.4,25.8-9.3,72.6-9.3s225.9,0,225.9,0s37.9-2.4,41.2,16.9c3.2,19.4,12.1,45.2,12.1,45.2
		s-2.4-10.5-36.3-8.1c0,0-14.5-7.1-53.7-4.4c-39.1,2.7-116.8,8.5-116.8,8.5s-20.8-2.6-21.6,9.6l0-36.3c0,0,2.5-22-22.1-23.9
		L587.1,456.9z"/>
	<path class="st39" d="M885.6,447.6c0,0,40.5-1.9,41.6,19.6c1.1,21.5,11.6,43.3,11.6,43.3s12.1,26.6,42,27.4
		c29.9,0.8,80.9-4.6,80.9-4.6l-1-10.7l-69.9,4.3c0,0-27.9,5.4-35.9-16.8c0,0-3,13.4-5.5-78.6s-4.9-96.1-4.9-96.1l-16.9,1.6
		l-0.8,51.6c0,0,0,16.9-28.2,17.8c-28.2,0.8-125.9,6.5-125.9,6.5s-14.5,0.8-13.7-17.8l1.6-23.4c0,0,0-16.9,11.3-17.8l-15.3,1.6
		l-8,91.9"/>
	<path class="st40" d="M771.4,354.4c0,0-8.1-1.2-10.5,13.1l-2,30.6c0,0-1.2,11.9,12.5,14.8l132.7-6.8c0,0,11.6-0.2,18.9-8.6
		c0,0,3.4-1.6,3.8-13.8c0.3-12.3,0.7-42.2,0.7-42.2s1.3-4.8-14.9-4S771.4,354.4,771.4,354.4z"/>
	<polygon class="st41" points="714.1,317.3 720.6,360.8 932.8,335 930.4,286.6 	"/>
	<path class="st41" d="M806.8,304.5c0,0-27.3,2.3-34.6-17l34.7-4.8l9.7-33.1l18.6,27.4l33.1-5.6c0,0-0.8,22.3-25.4,28.1L806.8,304.5
		z"/>
	<path class="st42" d="M932.8,335l-1.7-34.9c0,0,55.8-2.2,94.5,0.2c38.7,2.4,126.7,9.7,126.7,9.7l127.5,9.7c0,0,59.7,1.6,64.6,21.8
		v12.9l-250.1-15.3l-149.3-4H932.8z"/>
	<polygon class="st43" points="1304.8,412.5 1337.1,412.5 1337.1,353.9 1304.8,352 	"/>
	<path d="M1316.1,405.2L1316.1,405.2c-2.7,0-4.8-2.2-4.8-4.8v-41.2c0-2.7,2.2-4.8,4.8-4.8l0,0c2.7,0,4.8,2.2,4.8,4.8v41.2
		C1320.9,403.1,1318.8,405.2,1316.1,405.2z"/>
	<path d="M1329,406L1329,406c-2.7,0-4.8-2.2-4.8-4.8l0.8-41.2c0-2.7,1.4-4.8,4-4.8l0,0c2.7,0,4.8,2.2,4.8,4.8l-1.6,41.2
		C1332.2,403.9,1331.7,406,1329,406z"/>
	<g>
		<path class="st44" d="M734.7,325.9l5,20.5c-1.4,0.6-2.7,0.6-3.9,0c-1.2-0.5-2-1.4-2.3-2.7l-0.2-1.2l-0.1-0.6l-4.8,0.7l-0.1,0.6
			l-0.3,1.2c-0.3,1.4-1.1,2.5-2.3,3.4c-1.2,0.9-2.5,1.2-3.9,1.1l5-21.9c0.3-1.3,1-2.4,2.1-3.2c0.6-0.5,1.2-0.7,1.9-0.8
			c0.7-0.1,1.3,0,1.9,0.3C733.8,323.8,734.4,324.6,734.7,325.9z M729.2,338.1l3.1-0.5l-1.5-7.7L729.2,338.1z"/>
		<path class="st44" d="M754.9,335.9l4.7,6.7c-1.2,1-2.4,1.5-3.7,1.4c-1.3-0.1-2.3-0.7-3.1-1.8l-3.1-4.4l-2.3,0.3v0.2
			c0,1.9-0.6,3.7-1.7,5.2c-1.1,1.5-2.5,2.4-4,2.6v-19.5c0-1.5,0.6-3,1.7-4.3c1.1-1.3,2.4-2.1,3.7-2.2l3.4-0.5
			c1.3-0.2,2.5-0.2,3.5,0.1c1.1,0.2,2,0.7,2.7,1.3c0.7,0.6,1.3,1.5,1.7,2.5c0.4,1,0.6,2.3,0.6,3.7v0.1c0,1.5-0.2,2.8-0.7,4
			c-0.4,1.2-1.1,2.2-1.8,3.1C756,335,755.4,335.5,754.9,335.9z M747.3,326v6.7l2.7-0.4c1-0.2,1.8-0.6,2.4-1.2
			c0.6-0.7,0.9-1.5,0.9-2.5v-0.1c0-1.1-0.3-1.9-0.9-2.4c-0.6-0.5-1.4-0.6-2.4-0.5L747.3,326z"/>
		<path class="st44" d="M773.9,320.1l5,20.5c-1.4,0.6-2.7,0.6-3.9,0c-1.2-0.5-2-1.4-2.3-2.7l-0.2-1.2l-0.1-0.6l-4.8,0.7l-0.1,0.6
			l-0.3,1.2c-0.3,1.4-1.1,2.5-2.3,3.4c-1.2,0.9-2.5,1.2-3.9,1.1l5-21.9c0.3-1.3,1-2.4,2.1-3.2c0.6-0.5,1.2-0.7,1.9-0.8
			c0.7-0.1,1.3,0,1.9,0.3C772.9,318,773.6,318.8,773.9,320.1z M768.3,332.3l3.1-0.5l-1.5-7.7L768.3,332.3z"/>
		<path class="st44" d="M795.2,318.8c0-1.5,0.5-2.8,1.5-4c1-1.2,2.3-1.9,3.7-2.1v19.5c0,1.5-0.5,2.8-1.5,4.1c-1,1.2-2.2,1.9-3.6,2.1
			v-1.9l-9.5-12v10c0,1.5-0.5,2.8-1.5,4c-1,1.2-2.2,1.9-3.6,2.1V321c0-1.5,0.5-2.8,1.5-4c1-1.2,2.2-1.9,3.6-2.1l9.5,13.1V318.8z"/>
		<path class="st44" d="M803.9,333.7c-0.3-0.6-0.4-1.3-0.4-2v-14.1c0,0,0,0,0-0.1l0,0c0-1.5,0.4-2.9,1.2-3.9c0.8-1.1,1.9-1.7,3.2-2
			l10-1.5v1.4c0,1.3-0.4,2.4-1.2,3.4c-0.8,1-1.8,1.6-3.1,1.7V316l-3.4,0.5c-0.3,0.1-0.7,0.3-0.9,0.6c-0.3,0.3-0.4,0.7-0.5,1
			c0,0.1,0,0.2,0,0.2v1.7c0,0.1,0,0.1,0,0.2v9.3c0.1,0.4,0.2,0.7,0.5,0.9c0.2,0.2,0.6,0.3,0.9,0.2l5.3-0.8v-3.7c0-0.2,0-0.3,0-0.5
			c-1.1-0.1-1.9-0.4-2.5-1.1c-0.6-0.7-0.9-1.7-0.9-3l4.9-0.7c0.4-0.1,0.9-0.1,1.2,0c0.4,0.1,0.7,0.2,0.9,0.3
			c0.2,0.1,0.4,0.4,0.6,0.6c0.2,0.3,0.3,0.5,0.3,0.8c0.1,0.2,0.1,0.6,0.2,0.9c0,0.4,0.1,0.7,0,0.9c0,0.2,0,0.5,0,0.9
			c0,0.4,0,0.6,0,0.7l0,3.8c0,0.6-0.1,1.2-0.3,1.8c-0.2,0.6-0.5,1.1-0.8,1.6c-0.3,0.5-0.8,0.9-1.2,1.2c-0.5,0.4-1,0.6-1.5,0.8
			l-7.8,1.1c-1.1,0.1-2.1-0.2-3-0.7C804.8,335.1,804.3,334.4,803.9,333.7z"/>
		<path class="st44" d="M834.4,320.4l6.4,10.3c-0.8,0.6-1.6,1-2.5,1.2c-0.9,0.2-1.8,0.1-2.6-0.2c-0.8-0.3-1.5-0.8-1.9-1.6l-4.2-6.7
			c-0.3,0.1-0.6,0.2-0.9,0.2v4.1c0,1.5-0.5,2.8-1.6,4c-1.1,1.2-2.3,1.9-3.9,2.1v-20c0-1.5,0.5-2.8,1.6-4c1.1-1.2,2.3-1.9,3.8-2.1
			v10.6l4.5-8.8c0.7-1.4,1.6-2.3,2.8-2.8c1.2-0.5,2.4-0.4,3.7,0.2l-6.3,12.3C833.9,319.6,834.2,319.9,834.4,320.4z"/>
		<path class="st44" d="M855,308.1l5,20.5c-1.4,0.6-2.7,0.6-3.9,0c-1.2-0.5-2-1.4-2.3-2.7l-0.2-1.2l-0.1-0.6l-4.8,0.7l-0.1,0.6
			l-0.3,1.2c-0.3,1.4-1.1,2.5-2.3,3.4c-1.2,0.9-2.5,1.2-3.9,1.1l5-21.9c0.3-1.3,1-2.4,2.1-3.2c0.6-0.5,1.2-0.7,1.9-0.8
			c0.7-0.1,1.3,0,1.9,0.3C854.1,306,854.7,306.8,855,308.1z M849.5,320.3l3.1-0.5l-1.5-7.7L849.5,320.3z"/>
		<path class="st45" d="M870.4,302c1.6-0.2,3.1-0.1,4.4,0.4c1.3,0.5,2.3,1.4,3.1,2.7c0.8,1.3,1.1,2.9,1.1,4.8v7.7
			c0,1.5-0.4,3-1.1,4.4c-0.7,1.4-1.8,2.6-3.1,3.5c-1.3,1-2.8,1.6-4.4,1.8l-8.4,1.2l0,0l0,0v-19.8c0-1.4,0.4-2.7,1.3-3.9
			c0.9-1.1,2-1.9,3.3-2.2v0l0.6-0.1l0,0L870.4,302z M874,317.5v-6.7c0-1.1-0.4-1.9-1.1-2.6c-0.7-0.7-1.6-0.9-2.5-0.8l-3.2,0.5v14.5
			c0,0,0,0,0,0.1s0,0,0,0.1l3.2-0.5c1-0.1,1.8-0.7,2.5-1.5C873.7,319.5,874,318.6,874,317.5z"/>
		<path class="st45" d="M892.6,302.5l5,20.5c-1.4,0.6-2.7,0.6-3.9,0c-1.2-0.5-2-1.4-2.3-2.7l-0.2-1.2l-0.1-0.6l-4.8,0.7l-0.1,0.6
			l-0.3,1.2c-0.3,1.4-1.1,2.5-2.3,3.4c-1.2,0.9-2.5,1.2-3.9,1.1l5-21.9c0.3-1.3,1-2.4,2.1-3.2c0.6-0.5,1.2-0.7,1.9-0.8
			c0.7-0.1,1.3,0,1.9,0.3C891.6,300.4,892.3,301.3,892.6,302.5z M887,314.8l3.1-0.5l-1.5-7.7L887,314.8z"/>
		<path class="st45" d="M900.7,298l13.5-2c0,1.6-0.5,2.9-1.5,4.1c-1,1.1-2.2,1.8-3.6,2l-1.5,0.2v14c0,1.5-0.5,2.8-1.6,4
			s-2.4,1.9-3.9,2.1v-19.3l-6.5,1c0-1.6,0.5-2.9,1.4-4.1C898,298.9,899.2,298.2,900.7,298z"/>
		<path class="st45" d="M924.3,297.8l5,20.5c-1.4,0.6-2.7,0.6-3.9,0c-1.2-0.5-2-1.4-2.3-2.7l-0.2-1.2l-0.1-0.6l-4.8,0.7l-0.1,0.6
			l-0.3,1.2c-0.3,1.4-1.1,2.5-2.3,3.4c-1.2,0.9-2.5,1.2-3.9,1.1l5-21.9c0.3-1.3,1-2.4,2.1-3.2c0.6-0.5,1.2-0.7,1.9-0.8
			c0.7-0.1,1.3,0,1.9,0.3C923.3,295.7,924,296.6,924.3,297.8z M918.7,310.1l3.1-0.5l-1.5-7.7L918.7,310.1z"/>
	</g>
	<polygon class="st44" points="718.4,346.2 725.8,355.6 921.9,331.4 932,318.2 933.2,335.4 721,361.2 	"/>
	<path class="st44" d="M806.5,282.2c0-0.8,9.7-33.1,9.7-33.1l19.4,27.4l-12.1,16.1L806.5,282.2z"/>
	<g>
		<path class="st46" d="M1050,448.7c0,0,9-40.4,5.8-75.2s-33.8-28.3-33.8-28.3s-71-7.3-71.8,26.6s0,80.7,0,80.7L1050,448.7z"/>
		<path class="st47" d="M989,373.7c0,0-10.3-0.2-14.4,7.3s-9.3,12.8-9.3,12.8s3.1-3.3,8.6-2.2s12.3,11.3,12.3,11.3l-1,18.8l1.4,28.9
			l12.7-0.3c0,0,15.4-16.1,21.3-18c0,0-2.7-17.9,0-29.3c0,0,9.9-20.4,19.2-7.9l5.5,9l-3.8-14.1c0,0-1-9-12-11.9
			c-11-3-10.3-9.9-10.3-9.9L989,373.7z"/>
		<path class="st48" d="M984.4,360c-0.5-0.9-3.6-22.2,14.6-21.3c18.2,0.9,23.8,3.4,23.2,17.9l-4,5.4l-16.1-13.2L984.4,360z"/>
		<path class="st49" d="M997,384.2l2.7,12.8l7.2-0.5l10-23.8c0,0-4,11-11.1,12.1C998.6,385.8,997,384.2,997,384.2z"/>
		<path class="st50" d="M987.7,357.3c0,0,0.3-10.9,13.7-11c13.4,0,17.8,4.7,16.5,14.4c0,0,1-5.7,5.5-3.8c4.5,1.9-1.7,13.5-6.2,11.4
			c0,0,1.4,7.1-6.5,14.2c-7.9,7.1-15.4,1.1-16.1-0.7c-0.7-1.8-6.5-10.1-6.5-10.1s-3.8,0-5.8-7.1
			C980.1,357.5,987.7,357.3,987.7,357.3z"/>
		<path class="st51" d="M993.9,380.5c0,0-2.1,5.9-1.4,13l5.7-3.4l-1.3-5.9C996.9,384.1,994.9,382.2,993.9,380.5z"/>
		<path class="st51" d="M1016.8,368.3c0,0,0.8,2.8-2,9.2c-2.8,6.4-8,19-8,19l6.5-0.5c0,0-0.9-1.3,3.4-5.5c0.7-0.7,3.1-12.4,6.5-15.4
			l-4.1-6.6L1016.8,368.3z"/>
		<path class="st52" d="M1019.3,427.5c0,0,15.3-3.1,20.5-0.3c0,0,6.8-12.5,4.6-26.5c-2.2-14-20-11.1-23.1-1.2
			C1018.3,409.1,1019.3,427.5,1019.3,427.5z"/>
		<polygon class="st53" points="1018.5,417.8 965.4,421.6 965.4,399.1 1018.5,395.3 		"/>
		<path class="st54" d="M1019.6,427.4l0.4,5.2c0,0-13.4,9.2-20.6,17.8l17.5-0.6l10.3-0.7l6.2-6.1c0,0,1.4-1,1.7-1.4
			c0.3-0.3,2.4-1.7,2.1-7.6l2.7-6.7C1039.8,427.2,1036,424.7,1019.6,427.4z"/>
		<path class="st55" d="M965.4,393.8c0,0-4.1,4.9,0,8.9v-3.6l5.7-0.4l2.9-7.1C973.9,391.6,969.1,390.1,965.4,393.8z"/>
		<path class="st56" d="M986.9,420.1c0,0-1.9,9.5,0.5,14.6s-0.7,16-0.7,16l-8.6,0l-2.3-29.8L986.9,420.1z"/>
		<g>
			<g>
				<path class="st57" d="M991.6,405.9c-0.2,0.5-0.4,0.9-1.1,1.5c-0.7,0.5-2.2,1.2-4.5,1.4l-10.8,0.7c-0.1,0-0.2-0.1-0.2-0.1
					c0.1-0.3,0.1-2.4,0-3.2c0-0.8-0.1-1.6-0.1-2.4v-2.4c0-0.2,0-0.3,0-0.4c0-0.1,0.1-0.1,0.2-0.1l11.2-0.7c0,0,0,0,0,0
					c0.8,0,2.3,0,3.6,0.6c1.3,0.5,1.7,1.6,1.8,2.1c0.1,0.3,0.1,0.6,0.1,0.9c0,0.2,0,0.6,0,0.9C991.9,404.7,991.9,405.3,991.6,405.9z
					 M985.4,404.7c0.7-0.2,0.5-0.6,0.4-0.6c-0.2-0.2-0.6-0.2-1-0.2c-0.3,0-3,0.2-3.6,0.2l0,0c-0.2,0-0.3,0-0.3,0.2v0.6
					c0,0.1,0.1,0.2,0.3,0.2C981.5,405.1,984.1,405,985.4,404.7z"/>
				<path class="st57" d="M1010,405.3c0,0.4-0.4,0.9-0.7,1.2c-0.5,0.4-1.2,0.6-1.3,0.6c-0.2,0.1-0.5,0.1-0.8,0.2
					c-0.1,0-0.8,0.1-0.9,0.1c0,0-0.6,0-0.6,0l-12.8,0.9c-0.1,0-0.1,0-0.1-0.1c0.1-0.6,0.3-3.1,0.2-3.8c0-0.7-0.1-1.4-0.2-2.2
					c0-0.4,0-1.9,0-2.3c0-0.1,0-0.1,0-0.2c0-0.1,0.1-0.1,0.1-0.1c0,0,14.2-0.9,14.2-0.9c0.1,0,1,0,1.6,0.2c0.5,0.2,0.7,0.8,0.8,1
					c0.1,0.2,0.1,0.5,0,0.7c0,0.2,0,0.4-0.1,0.6c-0.1,0.2-0.2,0.3-0.3,0.5c0,0,0,0,0,0c0,0,0,0-0.1,0c0,0-0.1,0.1-0.1,0.1
					c0,0-0.1,0-0.1,0.1c0,0,0,0-0.1,0c0,0,0,0,0,0c-0.1,0-0.1,0.1-0.2,0.1c-0.2,0.1-0.4,0.1-0.6,0.2c-0.3,0.1-0.5,0.1-0.8,0.1
					c-0.2,0-0.4,0-0.4,0.1c0,0.1,0.2,0.1,0.4,0.1c0.7,0,1.4,0.2,1.9,0.5c0.4,0.3,0.7,0.9,0.7,1.5C1010,404.8,1010,405,1010,405.3z
					 M1003,404.6c-0.2,0-0.4,0-0.6,0c-0.3,0-2.9,0.2-3.3,0.2c-0.5,0.1-0.4,0.8-0.1,0.8c0.2,0,3.3-0.2,3.8-0.3c0.2,0,0.5-0.1,0.6-0.3
					C1003.5,404.9,1003.3,404.7,1003,404.6z M1003.4,401.5c0-0.1-0.3-0.2-0.4-0.2c-0.2,0-0.5,0-0.7,0c-0.3,0-2.7,0.1-3.1,0.2
					c-0.6,0.1-0.5,0.9-0.1,0.9c0.6,0,1.9-0.1,2.5-0.2c0.5-0.1,1.2,0,1.6-0.3C1003.4,401.8,1003.4,401.6,1003.4,401.5z"/>
			</g>
			<g>
				<path class="st58" d="M981.4,410c0,0.6,0,0.7,0,1.6c0,0.2,0.1,0.7,0.1,1c0,0.1-0.1,0.1-0.1,0.1c-1,0-1.9,0-2.5,0
					c-0.7,0.1-1.4,0.2-1.4,0.5c0,0.3,0.3,0.3,0.4,0.4c0.5,0,0.8,0,1.4,0c0.7,0,0.8,0,1.3,0.3c0.4,0.3,0.8,0.8,0.8,2.5
					c0,0.3-0.1,0.8-0.5,1.4c-0.2,0.2-0.6,0.6-1.1,0.8c-0.6,0.2-1.4,0.2-1.7,0.3c-0.2,0-3.4,0.3-3.4,0.3c-0.1,0-0.1,0-0.1-0.1v0
					c0-0.2,0-0.4,0-0.7c0-0.6,0-1.1,0-1.7c0-0.1,0.1-0.1,0.1-0.1c0.3,0,1,0,1.1,0c0.6,0,1.5-0.1,2.1-0.2c0.2-0.1,0.3-0.2,0.3-0.4
					c0-0.4-1.2-0.2-1.6-0.1c-0.6,0.1-0.9,0-1.4-0.3c-0.4-0.2-0.7-0.9-0.7-1.3c0-0.9-0.1-1.6,0.3-2.4c0.2-0.5,0.5-0.8,1-1
					c0.4-0.2,1.1-0.4,1.5-0.4L981.4,410C981.3,410,981.3,410,981.4,410z"/>
				<path class="st58" d="M989.3,415.4c0,0.6-0.2,1-0.4,1.4c-0.2,0.4-0.5,0.7-0.9,0.9c-0.4,0.3-0.8,0.5-1.5,0.5
					c-0.2,0-1.6,0.1-1.6,0.1c-0.7,0-1.3-0.3-1.7-0.6c-0.3-0.3-0.7-1-0.7-1.4s0-3.7,0-4.3s0.3-1.2,0.6-1.5c0.5-0.5,0.9-0.7,1.6-0.8
					c0,0,1.6-0.1,2.3-0.1c0.6,0,1.2,0.1,1.6,0.4c0.5,0.4,0.8,1,0.8,1.6C989.3,412.2,989.3,414.8,989.3,415.4z M985.8,415.7
					c0.5,0,0.6-0.5,0.6-0.7c0-0.7,0.1-1.6,0-2c0-0.4-0.1-0.7-0.6-0.7c-0.6,0-0.7,0.5-0.7,0.8c0,0.3,0,1.2,0,1.9
					C985.2,415.6,985.5,415.7,985.8,415.7z"/>
				<path class="st58" d="M997.2,417.4c0,0.1,0,0.2-0.1,0.2l-2.7,0.2c0,0-0.1,0-0.1-0.1c-0.1-0.3-0.4-1.7-0.7-1.9
					c-0.1-0.1-0.4,0-0.4,0.1c-0.1,0.6-0.1,1.2,0,1.8c0,0.1-0.1,0.1-0.1,0.1l-2.6,0.2c-0.1,0-0.1,0-0.1-0.1v-1.2v0c0-0.2,0-2.7,0-2.9
					v0v-1.7c0-0.9,0.1-1.8,0-2.7c0,0,0-0.1,0.1-0.1l4.4-0.3c0.4,0,0.9,0.1,1.3,0.3c0.4,0.2,0.7,0.6,0.8,0.8c0.3,0.5,0.3,1,0.3,1.7
					c0,0.5-0.1,1.3-0.3,1.7c-0.2,0.3-0.7,0.9-0.7,0.9c0,0,0,0,0,0c-0.2,0.1,0.2,0.3,0.4,0.8C996.9,416,997.1,417.2,997.2,417.4z
					 M994.1,411.8c-0.1-0.5-0.3-0.6-0.6-0.5c-0.1,0-0.3,0.1-0.3,0.2c0,0.1,0,0.3,0,0.4c0,0.3,0,0.9,0,1.2c0,0.1,0,0.3,0.3,0.3
					c0.3,0,0.5-0.2,0.6-0.6C994.2,412.4,994.1,412.1,994.1,411.8z"/>
				<path class="st58" d="M998.2,408.9l3.4-0.2c0.1,0,0.2,0.1,0.2,0.1c-0.1,1.4,0,5.6,0,6.4c0,0.6,0.1,1.3,0.1,1.9
					c0,0.1-0.1,0.2-0.2,0.2l-3.5,0.2c0,0-0.1,0-0.1-0.1c0.1-0.5,0.1-2.9,0.1-3.7C998.2,412.7,998.2,409.5,998.2,408.9
					C998.2,408.9,998.2,408.9,998.2,408.9L998.2,408.9z"/>
				<path class="st58" d="M1011.4,416.6l-3.8,0.3c0-0.1,0-0.2,0-0.4c-0.1-0.5-0.1-0.8-0.2-1.3c-0.1-0.3,0-0.5-0.6-0.5
					c-0.4,0-0.5,0.3-0.5,0.8c-0.1,0.5-0.1,0.9-0.1,1.4l-3.2,0.2c0.4-1.3,0.6-2.6,0.9-4c0.3-1.4,0.8-2.7,1-4.1c0-0.2,0.1-0.5,0.1-0.7
					l4.1-0.3c0.2,1.3,0.5,2.5,0.9,3.7c0.4,1.3,0.8,2.7,1.2,4C1011.2,416.1,1011.3,416.4,1011.4,416.6z M1006.9,412.9
					C1006.9,412.9,1007,412.9,1006.9,412.9c0.1,0,0.1-0.1,0.2-0.1c0.2-0.1,0.1-0.6,0.1-1c0-0.4,0-0.8-0.3-1c-0.1-0.1-0.2,0-0.3,0.1
					C1006.5,412.1,1006.2,412.9,1006.9,412.9z"/>
			</g>
		</g>
		<path class="st54" d="M970.5,398.4c0,0-1-4.6,0.7-5s2.7-1.1,2.7-1.1s1-2.6,3.1-1.8c0,0,1-3.2,2.4-3c1.4,0.2,3.4,1.3,5.1-0.7
			c1.7-2,5.1,2.1,4.8,4c-0.3,1.9-1.4,0.7-1,9.1c0,0,0.3,4.3-1.7,4.2c-2.1-0.2-2.7-4.2-2.7-6.4l-13,0.9
			C970.9,398.7,970.5,398.8,970.5,398.4z"/>
	</g>
	<g>
		<path class="st59" d="M749.2,438.7c-20.8-2.9-19.9-29.3-19-52.5l0.1-3.2c0.9-24.9,25.7-27.2,25.9-27.2l0.3,4
			c-0.9,0.1-21.5,2.1-22.2,23.3l-0.1,3.2c-0.8,22.6-1.7,46,15.6,48.4L749.2,438.7z"/>
	</g>
	<g>
		<path class="st59" d="M942.4,437c-1.7,0-2.8-0.3-3.1-1.6c-0.4-1.8,1.8-2.4,2.8-2.8l0.3,1.1c1.5,0,5.5-0.2,15.7-1.5
			c17.6-2.3,18-20.7,18.5-44c0.2-7.7,0.3-15.7,1.1-24c0.8-8.3-1.1-14.5-5.6-18.5c-9.9-8.6-29.3-4.1-29.5-4l-0.8-3.1
			c0.9-0.2,21.2-5,32.4,4.7c5.4,4.7,7.6,11.8,6.7,21.2c-0.8,8.1-0.9,16.1-1.1,23.7c-0.5,23.9-0.9,44.5-21.3,47.1
			c-6.4,0.8-11.2,1.3-14.1,1.5C943.6,437,943,437,942.4,437z"/>
	</g>
	<path d="M1410.1,565.4"/>
	<g>
		<path class="st60" d="M1333.8,412.9c0,0,3.6,8.9,3.2,84.3"/>
		<path class="st60" d="M1338.3,497.2l-2.4,0c0.4-73.4-3-83.5-3.1-83.9l2.2-0.9C1335.1,412.8,1338.7,422.4,1338.3,497.2z"/>
	</g>
	<g>
		<line class="st60" x1="1326.6" y1="412.5" x2="1328" y2="497.2"/>
		
			<rect x="1326.1" y="412.5" transform="matrix(0.9999 -1.671076e-02 1.671076e-02 0.9999 -7.4155 22.2435)" class="st60" width="2.4" height="84.7"/>
	</g>
	<path class="st61" d="M1200.3,563c0,0-26.6,6.5-25.8-16.1c0.8-22.6,4-50.8,46-52.4c42-1.6,48.4,8.9,50,15.3
		c1.6,6.5,4.2,34.2,17.9,38.5c0,0-25.7-0.3-30.4-20.9s-39-13.2-43.3-12.4C1210.4,515.8,1196.7,530.3,1200.3,563z"/>
	<path class="st62" d="M1093.8,471c0.8-2.4,0-10.5,0-10.5l232.8-13.3l-5.2,7.7L1093.8,471z"/>
	<path class="st26" d="M567.3,503.7c0,0-33.9-2.5-26.4,69.5c0,0,22.8,0.2,31.7-3.8C572.5,569.4,567.7,542,567.3,503.7z"/>
	<path class="st63" d="M1045.4,589.6c0,0,10.5,29,37.9,25.8c15.2-1.8,31.1-16.3,29.9-37.1L1045.4,589.6z"/>
	<polygon class="st64" points="539.8,593.3 539.8,622 610.8,631.8 610.8,599.2 	"/>
	<g>
		<path d="M564.5,620.2c0,1-0.6,1.4-1.8,1.3l-9.9-0.9c-1.2-0.1-1.8-0.6-1.8-1.6c0-0.9,0.6-1.3,1.8-1.2l3,0.3v-12.5l-2.8,1.4
			c-0.3,0.1-0.5,0.2-0.7,0.2c-0.4,0-0.8-0.2-1-0.6c-0.3-0.4-0.4-0.7-0.4-1.1c0-0.5,0.3-0.9,0.8-1.2l4.5-2.2c0.6-0.3,1.1-0.4,1.7-0.3
			c0.5,0,1,0.2,1.3,0.6c0.3,0.3,0.5,0.8,0.5,1.3v14.9l3.1,0.3C563.9,618.7,564.5,619.3,564.5,620.2z"/>
		<path d="M582.4,617.1c0.3,0.3,0.4,0.6,0.4,1.1c0,0.9-0.6,1.3-1.8,1.2l-1.5-0.1v2.2c0,0.6-0.2,1-0.5,1.3c-0.3,0.3-0.8,0.4-1.3,0.3
			s-1-0.2-1.3-0.6c-0.3-0.3-0.5-0.8-0.5-1.4v-2.2l-7.7-0.7c-0.5,0-0.9-0.2-1.2-0.5c-0.3-0.3-0.4-0.7-0.4-1.1c0-0.4,0.2-0.8,0.5-1.2
			l9.1-11.4c0.2-0.2,0.4-0.4,0.7-0.5c0.3-0.1,0.6-0.2,0.9-0.1c0.5,0,0.9,0.2,1.3,0.6c0.4,0.3,0.6,0.8,0.6,1.4v11.2l1.5,0.1
			C581.6,616.7,582.1,616.8,582.4,617.1z M570.4,615.6l5.5,0.5v-7.4L570.4,615.6z"/>
		<path d="M598,616.4c0.7,0.9,1,1.9,1,3.1c0,1.7-0.7,2.9-2,3.8c-1.3,0.9-3.1,1.2-5.3,1c-1.3-0.1-2.5-0.4-3.7-0.9
			c-1.2-0.5-2.2-1.1-3-1.8c-0.4-0.4-0.7-0.9-0.7-1.4c0-0.4,0.1-0.7,0.4-1c0.2-0.3,0.5-0.4,0.9-0.3c0.2,0,0.4,0.1,0.5,0.1
			c0.2,0.1,0.4,0.2,0.6,0.4c0.8,0.6,1.6,1.1,2.3,1.4c0.7,0.3,1.6,0.6,2.4,0.6c1.3,0.1,2.2,0,2.9-0.5c0.6-0.4,0.9-1.1,0.9-2.1
			c0-1-0.3-1.7-1-2.2c-0.7-0.5-1.7-0.9-3-1l-1.7-0.2c-0.4,0-0.8-0.2-1-0.5c-0.2-0.3-0.4-0.6-0.4-1c0-0.4,0.1-0.7,0.4-1
			c0.2-0.3,0.6-0.4,1-0.3l1.2,0.1c2.7,0.2,4-0.6,4-2.5c0-0.9-0.3-1.6-0.9-2.1c-0.6-0.5-1.3-0.8-2.3-0.9c-1.4-0.1-3,0.3-4.6,1.2
			c-0.3,0.1-0.5,0.2-0.6,0.3c-0.2,0-0.3,0.1-0.5,0c-0.3,0-0.6-0.2-0.9-0.5c-0.2-0.3-0.4-0.7-0.4-1.1c0-0.3,0.1-0.5,0.2-0.7
			c0.1-0.2,0.3-0.4,0.5-0.5c0.8-0.6,1.8-1,2.9-1.3c1.1-0.3,2.3-0.4,3.5-0.2c2,0.2,3.6,0.8,4.9,1.8c1.2,1,1.8,2.3,1.8,3.9
			c0,1.1-0.3,2-0.9,2.7c-0.6,0.7-1.4,1.2-2.4,1.5C596.4,614.9,597.4,615.6,598,616.4z"/>
	</g>
	<g>
		<g>
			<path class="st65" d="M805,369.4l-0.7-0.4c0.3-0.6,8.6-13.7,13.6-13.7c5,0,12.7,10.4,13,10.8l-0.7,0.5
				c-0.1-0.1-7.8-10.5-12.4-10.5C814,356,807.3,365.6,805,369.4z"/>
		</g>
		<polygon class="st66" points="840.8,390.9 793.6,395.1 793.6,369.3 840.8,365.1 		"/>
		<g>
			<path class="st57" d="M817.3,377.5c-0.2,0.5-0.4,1-1.1,1.7c-0.7,0.6-2.2,1.4-4.6,1.6l-10.8,1c-0.1,0-0.2-0.1-0.2-0.1
				c0.1-0.4,0.1-2.8,0-3.6c0-0.9-0.1-1.8-0.1-2.8v-2.7c0-0.2,0-0.3,0-0.5c0-0.1,0.1-0.1,0.2-0.1l11.2-1c0,0,0,0,0,0
				c0.8,0,2.3,0,3.6,0.6c1.3,0.6,1.7,1.8,1.8,2.4c0.1,0.4,0.1,0.7,0.1,1.1c0,0.2,0,0.7,0,1C817.5,376.2,817.5,376.8,817.3,377.5z
				 M811,376.2c0.7-0.2,0.5-0.7,0.4-0.7c-0.2-0.2-0.6-0.2-1-0.2c-0.3,0-3,0.2-3.6,0.3l0,0c-0.2,0-0.3,0-0.3,0.2v0.7
				c0,0.1,0.1,0.3,0.3,0.2C807,376.7,809.7,376.6,811,376.2z"/>
			<path class="st57" d="M835.7,376.5c0,0.5-0.4,1.1-0.7,1.3c-0.5,0.4-1.2,0.7-1.3,0.7c-0.2,0.1-0.5,0.2-0.8,0.2
				c-0.1,0-0.8,0.1-0.9,0.1c0,0-0.6,0.1-0.6,0.1l-12.8,1.2c-0.1,0-0.1,0-0.1-0.1c0.1-0.6,0.3-3.6,0.2-4.4c0-0.8-0.1-1.6-0.2-2.5
				c0-0.4,0-2.2,0-2.6c0-0.1,0-0.1,0-0.2c0-0.1,0.1-0.1,0.1-0.1c0,0,14.2-1.3,14.3-1.3c0.1,0,1-0.1,1.6,0.3c0.5,0.3,0.7,0.9,0.8,1.1
				c0.1,0.3,0.1,0.6,0,0.8c0,0.3,0,0.5-0.1,0.7c-0.1,0.2-0.2,0.4-0.3,0.6c0,0,0,0,0,0c0,0,0,0-0.1,0.1c0,0-0.1,0.1-0.1,0.1
				c0,0-0.1,0-0.1,0.1c0,0,0,0-0.1,0c0,0,0,0,0,0c-0.1,0-0.1,0.1-0.2,0.1c-0.2,0.1-0.4,0.2-0.6,0.2c-0.3,0.1-0.5,0.1-0.8,0.2
				c-0.2,0-0.4,0-0.4,0.2c0,0.2,0.2,0.2,0.4,0.1c0.7,0,1.4,0.2,1.9,0.6c0.4,0.4,0.7,1,0.7,1.7C835.7,375.9,835.7,376.2,835.7,376.5z
				 M828.7,375.9c-0.2,0-0.4,0-0.6,0c-0.3,0-2.9,0.2-3.4,0.3c-0.5,0.1-0.4,1-0.1,1c0.2,0,3.3-0.3,3.8-0.4c0.2,0,0.5-0.1,0.6-0.3
				C829.2,376.2,829,376,828.7,375.9z M829,372.3c0-0.2-0.3-0.2-0.4-0.3c-0.2,0-0.5,0-0.7,0c-0.3,0-2.7,0.2-3.1,0.3
				c-0.6,0.1-0.5,1-0.1,1c0.6,0,1.9-0.2,2.5-0.2c0.5-0.1,1.2,0,1.6-0.4C829,372.6,829,372.4,829,372.3z"/>
		</g>
		<g>
			<path class="st58" d="M806.8,382.3c0,0.6,0,0.7,0,1.6c0,0.2,0.1,0.7,0.1,1c0,0.1-0.1,0.1-0.1,0.1c-1,0.1-1.9,0-2.4,0.1
				c-0.7,0.1-1.3,0.2-1.3,0.5c0,0.3,0.3,0.3,0.4,0.3c0.5,0,0.7-0.1,1.4-0.1c0.6,0,0.8,0,1.3,0.3c0.4,0.3,0.7,0.8,0.7,2.5
				c0,0.3-0.1,0.8-0.5,1.4c-0.2,0.3-0.6,0.6-1.1,0.8c-0.6,0.2-1.3,0.3-1.6,0.3c-0.2,0-3.3,0.3-3.3,0.3c-0.1,0-0.1,0-0.1-0.1v0
				c0-0.2,0-0.4,0-0.7c0-0.6,0-1.1,0-1.7c0-0.1,0.1-0.1,0.1-0.1c0.3,0,0.9-0.1,1-0.1c0.6,0,1.5-0.1,2-0.3c0.2-0.1,0.3-0.2,0.3-0.4
				c0-0.4-1.1-0.2-1.5-0.1c-0.6,0.1-0.8,0-1.3-0.2c-0.4-0.2-0.7-0.9-0.7-1.3c0-0.9-0.1-1.6,0.3-2.4c0.2-0.5,0.4-0.8,0.9-1
				c0.4-0.2,1-0.4,1.5-0.5L806.8,382.3C806.8,382.2,806.8,382.2,806.8,382.3z"/>
			<path class="st58" d="M814.4,387.5c0,0.6-0.2,1-0.4,1.4c-0.2,0.4-0.5,0.7-0.9,0.9c-0.4,0.3-0.8,0.5-1.5,0.6
				c-0.2,0-1.5,0.1-1.6,0.1c-0.6,0-1.3-0.2-1.6-0.5c-0.3-0.3-0.7-1-0.7-1.4s0-3.7,0-4.3s0.2-1.2,0.5-1.5c0.5-0.6,0.9-0.7,1.5-0.8
				c0,0,1.6-0.1,2.2-0.2c0.6-0.1,1.1,0,1.6,0.4c0.4,0.4,0.7,1,0.7,1.6C814.4,384.3,814.4,386.9,814.4,387.5z M811.1,387.8
				c0.5,0,0.6-0.5,0.6-0.7c0-0.7,0.1-1.6,0-2c0-0.4-0.1-0.7-0.6-0.7c-0.6,0.1-0.7,0.5-0.7,0.8c0,0.3,0,1.2,0,1.9
				C810.5,387.7,810.8,387.9,811.1,387.8z"/>
			<path class="st58" d="M822.1,389.3c0,0.1,0,0.2-0.1,0.2l-2.6,0.2c0,0-0.1,0-0.1-0.1c-0.1-0.3-0.4-1.7-0.7-1.9
				c-0.1-0.1-0.4,0-0.4,0.1c0,0.6-0.1,1.2,0,1.8c0,0.1,0,0.1-0.1,0.1l-2.5,0.2c-0.1,0-0.1,0-0.1-0.1v-1.2v0c0-0.2,0-2.7,0-2.9v0
				v-1.7c0-0.9,0.1-1.8,0-2.7c0,0,0-0.1,0.1-0.1l4.2-0.4c0.4,0,0.9,0.1,1.2,0.3c0.4,0.2,0.7,0.6,0.8,0.8c0.3,0.5,0.3,1,0.3,1.7
				c0,0.5-0.1,1.3-0.3,1.7c-0.2,0.3-0.7,0.9-0.7,0.9c0,0,0,0,0,0c-0.2,0.1,0.2,0.2,0.4,0.8C821.8,388,822,389.1,822.1,389.3z
				 M819.1,383.8c-0.1-0.5-0.3-0.6-0.5-0.5c-0.1,0-0.3,0.1-0.3,0.2c0,0.1,0,0.3,0,0.4c0,0.3,0,0.9,0,1.2c0,0.1,0,0.3,0.3,0.3
				c0.3,0,0.5-0.2,0.6-0.6C819.2,384.4,819.1,384.1,819.1,383.8z"/>
			<path class="st58" d="M823.1,380.7l3.3-0.3c0.1,0,0.2,0.1,0.2,0.1c-0.1,1.4,0,5.6,0,6.4c0,0.6,0.1,1.3,0.1,1.9
				c0,0.1-0.1,0.2-0.2,0.2l-3.4,0.3c0,0-0.1,0-0.1-0.1c0.1-0.5,0.1-2.9,0-3.7C823.1,384.6,823,381.3,823.1,380.7
				C823.1,380.8,823.1,380.8,823.1,380.7L823.1,380.7z"/>
			<path class="st58" d="M835.8,388.2l-3.6,0.3c0-0.1,0-0.2,0-0.4c-0.1-0.5-0.1-0.8-0.2-1.3c-0.1-0.3,0-0.5-0.6-0.5
				c-0.4,0-0.5,0.3-0.5,0.9c-0.1,0.5-0.1,0.9-0.1,1.4l-3.1,0.3c0.4-1.3,0.6-2.6,0.9-4c0.3-1.4,0.8-2.7,1-4.1c0-0.2,0.1-0.5,0.1-0.7
				l4-0.4c0.2,1.3,0.5,2.5,0.8,3.7c0.4,1.3,0.7,2.7,1.2,4C835.6,387.7,835.7,388,835.8,388.2z M831.5,384.6
				C831.5,384.6,831.5,384.6,831.5,384.6c0.1,0,0.1-0.1,0.2-0.1c0.2-0.1,0.1-0.7,0.1-1c0-0.4,0-0.8-0.3-1c-0.1-0.1-0.2,0-0.3,0.1
				C831,383.9,830.8,384.7,831.5,384.6z"/>
		</g>
	</g>
	<ellipse class="st67" cx="1130.9" cy="377.8" rx="19.4" ry="26.2"/>
	<ellipse class="st67" cx="1201.9" cy="378.6" rx="19.4" ry="26.2"/>
	<ellipse class="st67" cx="1271.3" cy="380.2" rx="19.4" ry="26.2"/>
	<g class="st68">
		<path class="st69" d="M771.4,354.4c0,0-8.1-1.2-10.5,13.1l-2,30.6c0,0-1.2,11.9,12.5,14.8l132.7-6.8c0,0,11.6-0.2,18.9-8.6
			c0,0,3.4-1.6,3.8-13.8c0.3-12.3,0.7-42.2,0.7-42.2s1.3-4.8-14.9-4S771.4,354.4,771.4,354.4z"/>
		<polygon class="st70" points="812.7,350.1 795.5,411.6 805.1,411.1 821.7,349 		"/>
		<polygon class="st70" points="825.8,348.5 811.9,410.8 848,408.9 863.4,343.6 		"/>
		<polygon class="st70" points="868.3,343.2 854.2,408.6 862,408.2 874.8,342.5 		"/>
	</g>
	<path class="st71" d="M950.1,452.2c1.7,0.2,108.2-4.7,108.2-4.7l2.4,75.9l-72.8,3.5c0,0-28.3,5.5-35.1-23.6c-6.7-29.1,0,0,0,0
		L950.1,452.2"/>
</g>
</svg>
