<?xml version="1.0" encoding="utf-8"?>
<!-- Generator: Adobe Illustrator 23.0.1, SVG Export Plug-In . SVG Version: 6.00 Build 0)  -->
<svg version="1.1" xmlns="http://www.w3.org/2000/svg" xmlns:xlink="http://www.w3.org/1999/xlink" x="0px" y="0px"
	 viewBox="0 0 322 750.6" style="enable-background:new 0 0 322 750.6;" xml:space="preserve">
<style type="text/css">
	.st0{display:none;}
	.st1{display:inline;fill:#A857A2;}
	.st2{display:inline;fill:#F0D7E8;}
	.st3{display:inline;fill:#EDE36F;}
	.st4{fill:#D2D2D1;}
	.st5{fill:#F68C65;}
	.st6{fill:#113F47;}
	.st7{fill:#E07250;}
	.st8{fill:#101010;}
	.st9{fill:#F58A68;}
	.st10{fill:#F2E1DC;}
	.st11{fill:#E58061;}
	.st12{fill:#E88266;}
	.st13{fill:#EE2956;}
	.st14{fill:#EEC9D2;}
	.st15{fill:#DD2657;}
	.st16{fill:#2F1119;}
	.st17{fill:#5FBF88;}
	.st18{fill:#C4282F;}
	.st19{fill:#559671;}
	.st20{fill:#A7509E;}
	.st21{fill:#80407D;}
	.st22{fill:#F9ED24;}
	.st23{fill:#C4B930;}
	.st24{fill:#9C3540;}
	.st25{fill:#DF77AF;}
	.st26{fill:#C1D82F;}
	.st27{fill:#3EB97E;}
	.st28{fill:#ABDFEA;}
	.st29{fill:#3953A4;}
	.st30{fill:#569AD3;}
	.st31{fill:#ABD482;}
	.st32{fill:#8EC73F;}
	.st33{fill:#93D6DE;}
	.st34{fill:#6EC8BB;}
	.st35{fill:#F58A69;}
	.st36{fill:#61A2CC;}
	.st37{fill:#FFFFFF;}
	.st38{fill:#ED2024;}
</style>
<g id="Layer_2" class="st0">
	<circle class="st1" cx="156.6" cy="164.1" r="156.6"/>
	<rect x="11.1" y="416.7" class="st2" width="286.1" height="286.1"/>
	<polygon class="st3" points="222.4,215.7 56.6,417.4 314.2,460.2 	"/>
</g>
<g id="Layer_1">
	<ellipse class="st4" cx="147.4" cy="710" rx="120.2" ry="34.6"/>
	<circle class="st5" cx="156.3" cy="195.3" r="33.5"/>
	<path class="st6" d="M119.1,200.2c0,0,1.5-0.4,3.8-1.3c10.2-3.7,37.2-15.5,38.2-36.7c0,0,8.9,30.9,28.6,35.1
		c0,0,0.5,19.9-23.1,29.9l0.4,13.4l27.5-9.5l2.2-37.1c0,0-0.8-44.2-32.9-45.2s-40,20.4-40.9,26.2c-0.9,5.8-9.8,24.4-2.6,62.8
		l28.6,3.6l-0.4-13.8c0,0-9.3-1.8-16.1-9.1c-6.7-7.2-7.4-11-9.3-19.1C123,199.7,124.1,198,119.1,200.2z"/>
	<path class="st6" d="M141.3,211.1c0.1,0,0.3,0,0.5,0c7.1,0.4,27.6,1.6,27.6,1.6s-0.8,8.5-13,7.8c-15.1-0.9-14.9-9.4-14.9-9.4"/>
	<path class="st7" d="M154.2,196.9c0,0-2.3,7.1,2.5,8.5L154.2,196.9z"/>
	<circle class="st8" cx="144.8" cy="189.2" r="2.8"/>
	<circle class="st8" cx="167" cy="190.5" r="2.8"/>
	<path class="st9" d="M111.9,415.8c0,0-12.7,63.4-7.5,104c0,0-15.5,28.1-13.7,132.6h16.6c0,0,47.5-200.9,49-223.3L111.9,415.8z"/>
	<path class="st9" d="M177.5,430c0,0-4.4,57.6,4.5,88.6l2.2,133.9h15.5c0,0,19.9-75.2,12.7-130.6c0,0,16.2-65.9,13.9-91.9
		C226.4,430,194.4,431.8,177.5,430z"/>
	<path class="st10" d="M107.3,247.1c0,0-0.8,54,17.2,103.5c0,0,70.2-8.5,90.4-7c0,0,6.4-84.4,1.3-111.3c0,0-18.5-5.6-28.6,1.1
		c0,0-15.2,41.9-26,53.8c0,0-37.3-33.4-37.5-48.9C124.1,238.4,114.2,237.2,107.3,247.1z"/>
	<path class="st11" d="M124.1,238.4c0,0,17.2,2.4,24.8,3.1l-0.4-13.7c0,0,8.8,2.5,18.2-0.6l0.4,13.4l22.1-8c0,0-20.1,50.5-27.4,54.7
		C161.6,287.3,123.1,252.7,124.1,238.4z"/>
	<circle class="st12" cx="137.7" cy="204.2" r="3.5"/>
	<circle class="st12" cx="174.8" cy="205.7" r="3.5"/>
	<path class="st13" d="M90.6,647.7c0-0.8,0.3,5.4,16.8,3.7c0,0-0.5,24.3,1.5,29.5c0,0-8,25.5-20.8,31.3
		c-12.7,5.8-35.5,14.4-36.6,1.9c-1.1-12.5,16.6-27.7,24.4-34.1C83.7,673.7,90.6,651.9,90.6,647.7z"/>
	<path class="st13" d="M184.2,652.5c0,0-0.2,24-2.2,28.6c0,0,8.5,39,38.2,40.4c29.7,1.5,4.8-26.6-5.9-40.4
		c-10.7-13.9-14.5-28.9-13.7-32.1C200.6,649,199.9,652.1,184.2,652.5z"/>
	<path class="st14" d="M108,676.3c0,0-9.1,22.5-17.4,27.9s-30.7,17.1-38.8,11.5c0,0,1.1,5.9,10.1,4.8s27.7-7.8,31.5-12
		c3.8-4.2,9.8-10.4,15.5-27.6L108,676.3z"/>
	<path class="st14" d="M183,676.3c0,0,10.5,28,18.5,32.3c8,4.3,20.1,10.9,27.1,7.2c7.1-3.7,5.2-4.6,5.2-4.6s2,5.6-2.3,8.3
		c-4.3,2.8-17.7,4.6-30.1-5.1c0,0-9.5-8.5-13.2-16.6c-3.6-8.1-6.4-16.8-6.4-16.8L183,676.3z"/>
	<path class="st15" d="M60.7,693.9l16.6-15.1c0,0,7.7-10,9.3-16.9l12.3,4.8c0,0-11.2,24.1-25.6,35.1L60.7,693.9z"/>
	<g>
		<path class="st16" d="M73,701.9c-0.2,0-0.5-0.1-0.8-0.5c-1.9-2.6-9.5-6.4-9.6-6.5l-1.9-1l11.1-0.4c-0.4-2.2-0.9-4.7-1.4-7.1
			l-0.1-0.7h7.1l-1.1-5.1l6.9-0.8l-1.8-5.9h4.6l-2.7-3.8l6.3-1.6l-3.8-6l12.2,5l-6.8,1.7l3.6,5.7h-6.8l3.5,4.9l-7,0.8l1.8,6.1h-7.7
			l1.6,7.4l-7.2,0.2c1.1,6.8,0.5,7.1,0.2,7.2C73.2,701.8,73.1,701.9,73,701.9z M64.9,694.9c2.3,1.2,6.1,3.5,7.8,5.4
			c0-1.1-0.3-3.1-0.7-5.6L64.9,694.9z M71.6,686.9c0.6,2.6,1,4.8,1.3,6.6l6.1-0.2l-1.4-6.4H71.6z M78.5,685.8H85l-1.4-4.8l-5.9,0.7
			L78.5,685.8z M83,675.1l1.4,4.7l5.4-0.6l-2.9-4.1H83z M87.5,674h5.6l-2.7-4.3l-5.1,1.3L87.5,674z M88.7,665l2.1,3.4l3.9-1
			L88.7,665z"/>
	</g>
	<path class="st16" d="M89.2,654.3c0,0,7.6,6.3,18.2,4.2l0-7.2c0,0-13.6,1.9-16.8-3.7L89.2,654.3z"/>
	<path class="st16" d="M184.2,652.5l-0.2,7.9c0,0,15.1,0.5,17.8-3.2c0,0-1.8-6.2-1.3-8.3c0,0-1.9,2.4-7.9,2.9
		C192.7,651.9,185.1,652.8,184.2,652.5z"/>
	<path class="st15" d="M193.8,667.1c0,0,17.3,30.6,20.2,32.5l11-5.3c0,0-20.6-24-20.1-30.5C204.9,663.8,195.6,666.9,193.8,667.1z"/>
	<g>
		<path class="st16" d="M214,699.5l2.3-5.4l-6.6-1l2.7-3.9h-4.7l2.6-4.3l-6.8-0.3l2.6-5l-6.2-1.8l2.4-3.6l-5.7-1.3l0.8-0.7
			c0,0,1.3-1.2,2.7-2.9c-3.2-0.6-6.3-1.1-6.3-1.1l0.1-1.1c5.5,0,9.5-2.5,9.6-2.5l1.7-1.1l-1,1.8c-0.6,1.2-1.4,2.3-2.1,3.3
			c1.5,0.2,2.9,0.5,3.9,0.6l0.9,0.1l-2.8,4.2l5.8,1.3l-2.2,4.2l6.4,1.9l-1.9,3.2l4.9,0.3l-2.6,3.9h5.6l-2.1,5.1l7.8,1.1L214,699.5z
			 M217.4,694.3l-1.3,3.2l5.7-2.5L217.4,694.3z M211.6,692.3l5.2,0.7l1.6-3.9h-4.7L211.6,692.3z M209.6,688.1h3.5l2-2.9l-3.6-0.2
			L209.6,688.1z M205.2,683.6l5.7,0.3l1.5-2.5l-5.2-1.5L205.2,683.6z M201.6,677.1l5,1.5l1.6-3.1l-4.8-1.1L201.6,677.1z
			 M198.8,672.3l4.1,0.9l2.1-3.1c-1.1-0.2-2.4-0.4-3.7-0.6C200.3,670.7,199.4,671.7,198.8,672.3z M197.7,667.8c1,0.2,2,0.4,3.1,0.5
			c0.5-0.6,1-1.3,1.4-2C201.2,666.8,199.6,667.4,197.7,667.8z"/>
	</g>
	<path class="st17" d="M157,90.2c0,0-4.8,0.6-5.6,5.4l21,21c0,0,2.2-2.4,1.4-8.3L157,90.2z"/>
	<path class="st18" d="M182.2,102.4"/>
	<polygon class="st19" points="172.4,116.6 155.8,127 147.9,124 167.3,111.4 	"/>
	<path class="st17" d="M147.9,124c0,0-1.6,0.7-2,3.5c-0.5,2.8-0.2,4.3,1,4.9l27.1,9.4c0,0,4-3.7,2.9-7.6L147.9,124z"/>
	<path class="st20" d="M110.5,47.6c0,0,4.7-1.2,7.1,3l-12,27.2c0,0-2.9-1.4-4.3-7.3L110.5,47.6z"/>
	<path class="st18" d="M91.3,68.1"/>
	<polygon class="st21" points="105.6,77.8 124.8,81.5 131.2,75.9 108.5,71.1 	"/>
	<path class="st20" d="M131.2,75.9c0,0,1.7,0.1,3.2,2.5c1.5,2.5,1.7,3.9,0.8,4.9l-21.9,18.5c0,0-5.1-2-5.4-6.1L131.2,75.9z"/>
	<path class="st22" d="M248.4,128.3c0,0,3.4,2.2,2.2,6.2l-23.9,8c0,0-0.8-2.6,2.1-6.9L248.4,128.3z"/>
	<polygon class="st23" points="226.8,142.5 235.5,156.6 242.6,157.4 232.6,140.5 	"/>
	<path class="st22" d="M242.6,157.4c0,0,0.9,1.1,0.2,3.4s-1.5,3.3-2.6,3.3l-24.1-3.1c0,0-1.7-4.3,0.7-6.8L242.6,157.4z"/>
	<path class="st10" d="M124.5,350.6c0,0-32.3,155.1-41.5,173.5c0,0,168.4,26,173.8,6.9l-41.9-187.3
		C214.9,343.7,130.8,347.2,124.5,350.6z"/>
	<path class="st18" d="M80.2,108.2L55.1,85.1c-1.3-1.2-1.4-3.2-0.2-4.4l0,0c1.2-1.3,3.2-1.4,4.4-0.2l24,22c0.7,0.7,0.8,1.8,0.1,2.5
		l-2.9,3.2C80.4,108.2,80.3,108.2,80.2,108.2z"/>
	<path class="st18" d="M72.8,135l-20.7-18.9c-2.6-2.3-2.7-6.3-0.4-8.9l0,0L77,130.4c1.3,1.2,1.4,3.2,0.2,4.4h0
		C76,136.1,74,136.2,72.8,135z"/>
	<polygon class="st24" points="51.7,107.2 74.7,103.1 80.4,108.3 57.3,112.4 	"/>
	<path class="st18" d="M243.7,87.9l27.4-20.4c1.4-1,1.7-3,0.6-4.4v0c-1-1.4-3-1.7-4.4-0.6l-26.1,19.4c-0.8,0.6-1,1.7-0.4,2.5
		l2.6,3.5C243.6,87.9,243.7,87.9,243.7,87.9z"/>
	<path class="st18" d="M248.4,115.3l22.5-16.7c2.8-2.1,3.4-6,1.3-8.8h0l-27.5,20.5c-1.4,1-1.7,3-0.6,4.4l0,0
		C245,116.1,247,116.4,248.4,115.3z"/>
	<polygon class="st24" points="272.2,89.8 249.7,83.4 243.6,87.9 266.1,94.4 	"/>
	<path class="st25" d="M143.8,61l-1-1c-1.8-1.8-1.8-4.6,0-6.4l1-1c1.8-1.8,4.6-1.8,6.4,0l1,1c1.8,1.8,1.8,4.6,0,6.4l-1,1
		C148.5,62.8,145.6,62.8,143.8,61z"/>
	<path class="st18" d="M213.3,107.4l-2.7-4.7c-1.2-2.2-0.5-4.9,1.7-6.2l4.7-2.7c2.2-1.2,4.9-0.5,6.2,1.7l2.7,4.7
		c1.2,2.2,0.5,4.9-1.7,6.2l-4.7,2.7C217.3,110.4,214.5,109.6,213.3,107.4z"/>
	<path class="st26" d="M128.7,120.1l-5.1-1.8c-2.3-0.8-3.6-3.4-2.7-5.8l1.8-5.1c0.8-2.3,3.4-3.6,5.8-2.7l5.1,1.8
		c2.3,0.8,3.6,3.4,2.7,5.8l-1.8,5.1C133.6,119.7,131,120.9,128.7,120.1z"/>
	<path class="st27" d="M74.1,161.9l-5.1-1.8c-2.3-0.8-3.6-3.4-2.7-5.8l1.8-5.1c0.8-2.3,3.4-3.6,5.8-2.7l5.1,1.8
		c2.3,0.8,3.6,3.4,2.7,5.8l-1.8,5.1C79,161.5,76.4,162.7,74.1,161.9z"/>
	<path class="st28" d="M166.1,50.1l-1.3-5.2c-0.6-2.4,0.9-4.9,3.3-5.5l5.2-1.3c2.4-0.6,4.9,0.9,5.5,3.3l1.3,5.2
		c0.6,2.4-0.9,4.9-3.3,5.5l-5.2,1.3C169.1,54,166.7,52.5,166.1,50.1z"/>
	<path class="st29" d="M260,155l-1.3-5.2c-0.6-2.4,0.9-4.9,3.3-5.5l5.2-1.3c2.4-0.6,4.9,0.9,5.5,3.3l1.3,5.2
		c0.6,2.4-0.9,4.9-3.3,5.5l-5.2,1.3C263,158.9,260.6,157.4,260,155z"/>
	<path class="st30" d="M112.4,137.9l5.4,1.6c1.8,0.5,2.4,2.8,1,3.9l-4,3.4c-0.3,0.3-0.6,0.6-0.7,1.1l-1.4,5.1
		c-0.5,1.7-2.7,2.1-4,0.8l-3.8-4.1c-0.3-0.3-0.7-0.6-1.1-0.7l-5.4-1.6c-1.8-0.5-2.4-2.8-1-3.9l4-3.4c0.3-0.3,0.6-0.6,0.7-1.1
		l1.4-5.1c0.5-1.7,2.7-2.1,4-0.8l3.8,4.1C111.6,137.5,112,137.7,112.4,137.9z"/>
	<path class="st25" d="M83.4,54.6l3.6,4.3c1.2,1.4,0.5,3.6-1.3,3.8l-5.2,0.6c-0.4,0.1-0.8,0.2-1.1,0.5l-3.9,3.5
		c-1.3,1.2-3.4,0.3-3.7-1.5l-0.9-5.5c-0.1-0.4-0.3-0.9-0.6-1.2l-3.6-4.3c-1.2-1.4-0.5-3.6,1.3-3.8l5.2-0.6c0.4-0.1,0.8-0.2,1.1-0.5
		l3.9-3.5c1.3-1.2,3.4-0.3,3.7,1.5l0.9,5.5C82.9,53.8,83.1,54.3,83.4,54.6z"/>
	<path class="st25" d="M205.9,148.5l3.6,4.3c1.2,1.4,0.5,3.6-1.3,3.8l-5.2,0.6c-0.4,0.1-0.8,0.2-1.1,0.5l-3.9,3.5
		c-1.3,1.2-3.4,0.3-3.7-1.5l-0.9-5.5c-0.1-0.4-0.3-0.9-0.6-1.2l-3.6-4.3c-1.2-1.4-0.5-3.6,1.3-3.8l5.2-0.6c0.4-0.1,0.8-0.2,1.1-0.5
		l3.9-3.5c1.3-1.2,3.4-0.3,3.7,1.5l0.9,5.5C205.4,147.7,205.6,148.1,205.9,148.5z"/>
	<path class="st27" d="M176.4,21.6l2.3,1.6c0.8,0.5,0.7,1.7-0.1,2l-2.4,1c-0.2,0.1-0.4,0.2-0.5,0.4l-1.5,2.2c-0.5,0.7-1.6,0.6-2-0.3
		l-1.1-2.6c-0.1-0.2-0.2-0.4-0.4-0.5l-2.3-1.6c-0.8-0.5-0.7-1.7,0.1-2l2.4-1c0.2-0.1,0.4-0.2,0.5-0.4l1.5-2.2c0.5-0.7,1.6-0.6,2,0.3
		l1.1,2.6C176,21.3,176.2,21.4,176.4,21.6z"/>
	<path class="st22" d="M200.6,70l3.6,4.3c1.2,1.4,0.5,3.6-1.3,3.8l-5.2,0.6c-0.4,0.1-0.8,0.2-1.1,0.5l-3.9,3.5
		c-1.3,1.2-3.4,0.3-3.7-1.5l-0.9-5.5c-0.1-0.4-0.3-0.9-0.6-1.2l-3.6-4.3c-1.2-1.4-0.5-3.6,1.3-3.8l5.2-0.6c0.4-0.1,0.8-0.2,1.1-0.5
		l3.9-3.5c1.3-1.2,3.4-0.3,3.7,1.5l0.9,5.5C200.1,69.3,200.3,69.7,200.6,70z"/>
	<circle class="st22" cx="145.2" cy="27.3" r="8.9"/>
	<circle class="st31" cx="199.3" cy="32.6" r="5.3"/>
	<circle class="st18" cx="100.3" cy="113.9" r="5.3"/>
	<circle class="st32" cx="194" cy="122.2" r="5.3"/>
	<circle class="st29" cx="172.4" cy="3.3" r="3.3"/>
	<circle class="st33" cx="266.3" cy="127" r="3.3"/>
	<circle class="st34" cx="147.9" cy="79.1" r="3.3"/>
	<path class="st35" d="M107.3,247.1l-19.1,36.7c0,0,12.6-12.4,19.9-16.7L107.3,247.1z"/>
	<path class="st35" d="M216.2,232.4l25,46.7c0,0-12.5-11.3-23-16.7L216.2,232.4z"/>
	<path class="st36" d="M275,357.5c0,14.8-3,28.8-8.3,41.7c-16.3,38.9-54.8,66.3-99.6,66.3c-59.6,0-107.9-48.3-107.9-107.9
		S107.4,249.6,167,249.6S275,297.9,275,357.5z"/>
	<polygon class="st37" points="236.7,309.8 153.2,393.3 104.6,344.7 84.6,364.7 133.2,413.3 153.2,433.3 173.2,413.3 256.7,329.8 	
		"/>
	<path class="st38" d="M318,227.2"/>
	<path class="st35" d="M65.4,318.1c0,0,0,8.3,5.3,9.4S94.5,308,92.5,306c-2-2-11.1-14.2-11.1-14.2S65.4,309.1,65.4,318.1z"/>
	<path class="st35" d="M258.5,363.8l16.7,5.9c0,0,0.8,14.8-5.4,27.9c-6.2,13.1-18.8-5.5-18.7-6.2
		C251.2,390.6,251.2,367.7,258.5,363.8z"/>
</g>
</svg>
