<?xml version="1.0" encoding="utf-8"?>
<!-- Generator: Adobe Illustrator 23.0.1, SVG Export Plug-In . SVG Version: 6.00 Build 0)  -->
<svg version="1.1" id="Layer_1" xmlns="http://www.w3.org/2000/svg" xmlns:xlink="http://www.w3.org/1999/xlink" x="0px" y="0px"
	 viewBox="0 0 512 512" style="enable-background:new 0 0 512 512;" xml:space="preserve">
<style type="text/css">
	.st0{fill:#706D72;}
</style>
<g>
	<path class="st0" d="M437.02,74.98C388.67,26.63,324.38,0,256,0S123.33,26.63,74.98,74.98C26.63,123.33,0,187.62,0,256
		s26.63,132.67,74.98,181.02c3.59,3.58,8.53,4.96,13.18,4.16c0.01,0,0.01,0.01,0.02,0.01l121.2-21.23c3.04-0.53,5.84-1.99,8.02-4.17
		l194.92-194.92c5.86-5.86,5.86-15.35,0-21.21l-99.99-99.99c-5.86-5.86-15.36-5.86-21.21,0L96.19,294.59
		c-2.18,2.18-3.64,4.98-4.17,8.02l-15.81,90.36C46.24,353.81,30,306.15,30,256C30,131.38,131.38,30,256,30s226,101.38,226,226
		S380.62,482,256,482c-8.28,0-15,6.72-15,15s6.72,15,15,15c68.38,0,132.67-26.63,181.02-74.98C485.37,388.67,512,324.38,512,256
		S485.37,123.33,437.02,74.98L437.02,74.98z M116.6,336.21l59.18,59.17l-71.73,12.56L116.6,336.21z M206.79,383.97l-28.77-28.77
		L351.72,181.5l28.77,28.77L206.79,383.97z M301.72,131.5l28.79,28.79L156.8,333.99l-28.79-28.79L301.72,131.5z"/>
</g>
<g>
</g>
<g>
</g>
<g>
</g>
<g>
</g>
<g>
</g>
<g>
</g>
<g>
</g>
<g>
</g>
<g>
</g>
<g>
</g>
<g>
</g>
<g>
</g>
<g>
</g>
<g>
</g>
<g>
</g>
</svg>
