<?xml version="1.0" encoding="utf-8"?>
<!-- Generator: Adobe Illustrator 23.0.1, SVG Export Plug-In . SVG Version: 6.00 Build 0)  -->
<svg version="1.1" id="Layer_1" xmlns="http://www.w3.org/2000/svg" xmlns:xlink="http://www.w3.org/1999/xlink" x="0px" y="0px"
	 viewBox="0 0 512 512" style="enable-background:new 0 0 512 512;" xml:space="preserve">
<style type="text/css">
	.st0{fill:#706D72;}
</style>
<g>
	<g>
		<path class="st0" d="M200,0H40C17.91,0,0,17.91,0,40v224c0,22.09,17.91,40,40,40h160c22.09,0,40-17.91,40-40V40
			C240,17.91,222.09,0,200,0z M200,288H40c-13.25,0-24-10.75-24-24V40c0-13.25,10.75-24,24-24h160c13.25,0,24,10.75,24,24v224
			C224,277.25,213.25,288,200,288z"/>
		<path class="st0" d="M200,336H40c-22.09,0-40,17.91-40,40v96c0,22.09,17.91,40,40,40h160c22.09,0,40-17.91,40-40v-96
			C240,353.91,222.09,336,200,336z M200,496H40c-13.25,0-24-10.75-24-24v-96c0-13.25,10.75-24,24-24h160c13.25,0,24,10.75,24,24v96
			C224,485.25,213.25,496,200,496z"/>
		<path class="st0" d="M512,472V248c0-22.09-17.91-40-40-40H312c-22.09,0-40,17.91-40,40v224c0,22.09,17.91,40,40,40h160
			C494.09,512,512,494.09,512,472z M472,496H312c-13.25,0-24-10.75-24-24V248c0-13.25,10.75-24,24-24h160c13.25,0,24,10.75,24,24
			v224C496,485.25,485.25,496,472,496z"/>
		<path class="st0" d="M512,136V40c0-22.09-17.91-40-40-40H312c-22.09,0-40,17.91-40,40v96c0,22.09,17.91,40,40,40h160
			C494.09,176,512,158.09,512,136z M472,160H312c-13.25,0-24-10.75-24-24V40c0-13.25,10.75-24,24-24h160c13.25,0,24,10.75,24,24v96
			C496,149.25,485.25,160,472,160z"/>
	</g>
</g>
<g>
</g>
<g>
</g>
<g>
</g>
<g>
</g>
<g>
</g>
<g>
</g>
<g>
</g>
<g>
</g>
<g>
</g>
<g>
</g>
<g>
</g>
<g>
</g>
<g>
</g>
<g>
</g>
<g>
</g>
</svg>
