<?xml version="1.0" encoding="utf-8"?>
<!-- Generator: Adobe Illustrator 23.0.1, SVG Export Plug-In . SVG Version: 6.00 Build 0)  -->
<svg version="1.1" id="Layer_1" xmlns="http://www.w3.org/2000/svg" xmlns:xlink="http://www.w3.org/1999/xlink" x="0px" y="0px"
	 viewBox="0 0 512 512" style="enable-background:new 0 0 512 512;" xml:space="preserve">
<style type="text/css">
	.st0{fill:#FFFFFF;}
</style>
<g>
	<path class="st0" d="M188.6,30c11.8,0,21.4,9.6,21.4,21.4v201.2c0,11.8-9.6,21.4-21.4,21.4H51.4c-11.8,0-21.4-9.6-21.4-21.4V51.4
		C30,39.6,39.6,30,51.4,30H188.6 M188.6,0H51.4C23,0,0,23,0,51.4v201.2C0,281,23,304,51.4,304h137.2c28.4,0,51.4-23,51.4-51.4V51.4
		C240,23,217,0,188.6,0L188.6,0z"/>
</g>
<g>
	<path class="st0" d="M188.6,366c11.8,0,21.4,9.6,21.4,21.4v73.2c0,11.8-9.6,21.4-21.4,21.4H51.4c-11.8,0-21.4-9.6-21.4-21.4v-73.2
		c0-11.8,9.6-21.4,21.4-21.4H188.6 M188.6,336H51.4C23,336,0,359,0,387.4v73.2C0,489,23,512,51.4,512h137.2
		c28.4,0,51.4-23,51.4-51.4v-73.2C240,359,217,336,188.6,336L188.6,336z"/>
</g>
<g>
	<path class="st0" d="M460.6,30c11.8,0,21.4,9.6,21.4,21.4v73.2c0,11.8-9.6,21.4-21.4,21.4H323.4c-11.8,0-21.4-9.6-21.4-21.4V51.4
		c0-11.8,9.6-21.4,21.4-21.4H460.6 M460.6,0H323.4C295,0,272,23,272,51.4v73.2c0,28.4,23,51.4,51.4,51.4h137.2
		c28.4,0,51.4-23,51.4-51.4V51.4C512,23,489,0,460.6,0L460.6,0z"/>
</g>
<g>
	<path class="st0" d="M460.6,238c11.8,0,21.4,9.6,21.4,21.4v201.2c0,11.8-9.6,21.4-21.4,21.4H323.4c-11.8,0-21.4-9.6-21.4-21.4
		V259.4c0-11.8,9.6-21.4,21.4-21.4H460.6 M460.6,208H323.4c-28.4,0-51.4,23-51.4,51.4v201.2c0,28.4,23,51.4,51.4,51.4h137.2
		c28.4,0,51.4-23,51.4-51.4V259.4C512,231,489,208,460.6,208L460.6,208z"/>
</g>
</svg>
