<?xml version="1.0" encoding="utf-8"?>
<!-- Generator: Adobe Illustrator 23.0.1, SVG Export Plug-In . SVG Version: 6.00 Build 0)  -->
<svg version="1.1" id="Capa_1" xmlns="http://www.w3.org/2000/svg" xmlns:xlink="http://www.w3.org/1999/xlink" x="0px" y="0px"
	 viewBox="0 0 512 512" style="enable-background:new 0 0 512 512;" xml:space="preserve">
<style type="text/css">
	.st0{fill:#FFFFFF;}
</style>
<g>
	<g>
		<path class="st0" d="M484.1,27.9C466.1,9.9,442.1,0,416.7,0L95.3,0C42.8,0,0,42.8,0,95.3l0,321.3C0,469.2,42.8,512,95.3,512h321.3
			c52.6,0,95.3-42.8,95.3-95.3V95.3C512,69.9,502.1,45.9,484.1,27.9z M482,416.7c0,36-29.3,65.3-65.3,65.3H95.3
			c-36,0-65.3-29.3-65.3-65.3l0-321.3C30,59.3,59.3,30,95.3,30l321.3,0c17.5,0,33.9,6.8,46.2,19.1C475.2,61.5,482,77.9,482,95.3
			V416.7z"/>
	</g>
</g>
<g>
	<g>
		<path class="st0" d="M346.1,217.5c-5.9-5.9-15.4-5.9-21.2,0L271,271.4l0-160c0-8.3-6.7-15-15-15s-15,6.7-15,15l0,160l-53.9-53.9
			c-5.9-5.9-15.4-5.9-21.2,0s-5.9,15.4,0,21.2l79.5,79.5c2.8,2.8,6.6,4.4,10.6,4.4c4,0,7.8-1.6,10.6-4.4l79.5-79.5
			C352,232.8,352,223.4,346.1,217.5z"/>
	</g>
</g>
<g>
	<g>
		<path class="st0" d="M400.6,385.6H111.4c-8.3,0-15,6.7-15,15s6.7,15,15,15h289.2c8.3,0,15-6.7,15-15
			C415.6,392.3,408.9,385.6,400.6,385.6z"/>
	</g>
</g>
</svg>
