<?xml version="1.0" encoding="utf-8"?>
<!-- Generator: Adobe Illustrator 23.0.1, SVG Export Plug-In . SVG Version: 6.00 Build 0)  -->
<svg version="1.1" xmlns="http://www.w3.org/2000/svg" xmlns:xlink="http://www.w3.org/1999/xlink" x="0px" y="0px"
	 viewBox="0 0 1366 768" style="enable-background:new 0 0 1366 768;" xml:space="preserve">
<style type="text/css">
	.st0{fill:#6CAAF4;}
	.st1{fill:#5B5B5B;}
	.st2{fill:#969696;}
	.st3{fill:#FFFFFF;}
	.st4{fill:#E2E2E2;}
	.st5{fill:none;stroke:#000000;stroke-miterlimit:10;}
	.st6{fill:#F2F2F2;}
	.st7{fill:#FFFFFF;stroke:#C2E1FF;stroke-miterlimit:10;}
	.st8{fill:#EF5476;}
	.st9{fill:#7FB9EA;}
</style>
<g id="Layer_1">
	<path class="st0" d="M839.5,0.5c0,0,193,182-19,374s-297,322-293,394h838V0.5H839.5z"/>
</g>
<g id="Layer_2">
	<rect x="820.5" y="542" class="st1" width="467" height="33"/>
	<rect x="839" y="280" class="st2" width="430" height="262"/>
	<path class="st3" d="M1237.9,525H870.1c-3.7,0-6.6-3-6.6-6.6V304.6c0-3.7,3-6.6,6.6-6.6h367.7c3.7,0,6.6,3,6.6,6.6v213.7
		C1244.5,522,1241.5,525,1237.9,525z"/>
	<path class="st4" d="M1234,325H876v-8.8c0-5.1,4.1-9.2,9.2-9.2h339.6c5.1,0,9.2,4.1,9.2,9.2V325z"/>
	<circle class="st3" cx="1223" cy="316" r="6"/>
	<circle class="st3" cx="1207" cy="316" r="6"/>
	<circle class="st3" cx="1191" cy="316" r="6"/>
	<polygon points="1227.1,313.8 1225.7,312.4 1223.3,314.8 1220.8,312.4 1219.4,313.8 1221.8,316.3 1219.4,318.7 1220.8,320.1 
		1223.3,317.7 1225.7,320.1 1227.1,318.7 1224.7,316.3 	"/>
	<rect x="1204" y="313" class="st5" width="6" height="6"/>
	<line class="st5" x1="1187.3" y1="316.3" x2="1195.3" y2="316.3"/>
	<path class="st6" d="M1222,509H888c-6.6,0-12-5.4-12-12V325h358v172C1234,503.6,1228.6,509,1222,509z"/>
	<path class="st7" d="M1159.1,365H959.9c-2.7,0-4.9-2.2-4.9-4.9v-11.1c0-2.7,2.2-4.9,4.9-4.9h199.1c2.7,0,4.9,2.2,4.9,4.9v11.1
		C1164,362.8,1161.8,365,1159.1,365z"/>
	<path class="st7" d="M1159.6,395.5H960.4c-2.7,0-4.9-2.2-4.9-4.9v-11.1c0-2.7,2.2-4.9,4.9-4.9h199.1c2.7,0,4.9,2.2,4.9,4.9v11.1
		C1164.5,393.3,1162.3,395.5,1159.6,395.5z"/>
	<path class="st7" d="M1158.6,426.5H959.4c-2.7,0-4.9-2.2-4.9-4.9v-11.1c0-2.7,2.2-4.9,4.9-4.9h199.1c2.7,0,4.9,2.2,4.9,4.9v11.1
		C1163.5,424.3,1161.3,426.5,1158.6,426.5z"/>
	<g>
		<polygon class="st8" points="938.3,361 930.7,353.4 932.5,351.7 938.3,357.5 948.1,347.7 949.8,349.5 		"/>
	</g>
	<g>
		<polygon class="st8" points="938.3,392 930.7,384.4 932.5,382.7 938.3,388.5 948.1,378.7 949.8,380.5 		"/>
	</g>
	<g>
		<polygon class="st8" points="938.3,424 930.7,416.4 932.5,414.7 938.3,420.5 948.1,410.7 949.8,412.5 		"/>
	</g>
	<path class="st9" d="M1119.9,471H998.1c-5.6,0-10.1-4.5-10.1-10.1v-1.8c0-5.6,4.5-10.1,10.1-10.1h121.8c5.6,0,10.1,4.5,10.1,10.1
		v1.8C1130,466.5,1125.5,471,1119.9,471z"/>
</g>
</svg>
