<?xml version="1.0" encoding="utf-8"?>
<!-- Generator: Adobe Illustrator 23.0.1, SVG Export Plug-In . SVG Version: 6.00 Build 0)  -->
<svg version="1.1" id="Layer_1" xmlns="http://www.w3.org/2000/svg" xmlns:xlink="http://www.w3.org/1999/xlink" x="0px" y="0px"
	 viewBox="0 0 512 512" style="enable-background:new 0 0 512 512;" xml:space="preserve">
<style type="text/css">
	.st0{fill:none;stroke:#FFFFFF;stroke-width:30;stroke-miterlimit:10;}
	.st1{fill:#FFFFFF;stroke:#FFFFFF;stroke-width:30;stroke-miterlimit:10;}
	.st2{fill:#FFFFFF;stroke:#FFFFFF;stroke-miterlimit:10;}
	.st3{fill:#FFFFFF;}
</style>
<path class="st0" d="M332,376.5h53.8c61.6,0,111.5-50.6,111.5-113s-49.9-113-111.5-113c-16.6,0-32.3,3.7-46.5,10.3
	c-2.4-63.5-54-114.3-117.3-114.3c-64.8,0-117.4,53.3-117.4,119c0,22.1,6,42.9,16.4,60.6c-8.9-3.6-18.5-5.6-28.7-5.6
	c-42.5,0-77,34.9-77,78c0,42.9,34.2,77.7,76.5,78v0h34.7"/>
<line class="st1" x1="126.4" y1="376.5" x2="161.2" y2="376.5"/>
<rect x="272.7" y="174.8" transform="matrix(0.7071 -0.7071 0.7071 0.7071 -96.6464 278.3442)" class="st2" width="30" height="162"/>
<rect x="113.3" y="240.8" transform="matrix(0.7071 -0.7071 0.7071 0.7071 -123.9826 212.3407)" class="st2" width="162" height="30"/>
<rect x="226" y="209" class="st2" width="30" height="270"/>
<g>
	<path class="st3" d="M451.7,127.2c-2.2-11.7-6.8-22.5-13.3-32l18.7-24l-8.6-8.6l-8.6-8.6l-24,18.8c-9.4-6.3-20.1-10.9-31.7-13
		L380.6,30h-12.1h-12.1l-3.7,29.8c-11.5,2.2-22.2,6.7-31.6,13l-23.4-18.3l-8.6,8.6l-8.6,8.6L298.6,95c-6.6,9.6-11.3,20.5-13.5,32.3
		l-29.1,3.6v12.1v12.1l29.1,3.6c2.2,11.6,6.7,22.4,13.1,31.8l-18.2,23.3l8.6,8.6l8.6,8.6l23.2-18.1c9.5,6.5,20.4,11.2,32.2,13.4
		l3.6,29.6h12.1h12.1l3.6-29.6c11.8-2.2,22.7-6.9,32.2-13.4l23.8,18.6l8.6-8.6l8.6-8.6l-18.7-24c6.3-9.3,10.8-20,13-31.5l30.3-3.7
		v-12.1v-12.1L451.7,127.2z"/>
</g>
</svg>
