<?xml version="1.0" encoding="utf-8"?>
<!-- Generator: Adobe Illustrator 23.0.1, SVG Export Plug-In . SVG Version: 6.00 Build 0)  -->
<svg version="1.1" id="Layer_1" xmlns="http://www.w3.org/2000/svg" xmlns:xlink="http://www.w3.org/1999/xlink" x="0px" y="0px"
	 viewBox="0 0 512 512" style="enable-background:new 0 0 512 512;" xml:space="preserve">
<style type="text/css">
	.st0{fill:none;stroke:#706D72;stroke-width:30;stroke-miterlimit:10;}
	.st1{fill:#706D72;}
</style>
<path class="st0" d="M331.98,376.5h53.77c61.58,0,111.5-50.59,111.5-113s-49.92-113-111.5-113c-16.59,0-32.33,3.68-46.48,10.26
	C336.82,97.24,285.24,46.5,221.96,46.5c-64.85,0-117.42,53.28-117.42,119c0,22.14,5.98,42.87,16.37,60.63
	c-8.87-3.62-18.55-5.63-28.7-5.63c-42.5,0-76.96,34.92-76.96,78c0,42.91,34.19,77.72,76.47,77.99v0.01h34.73"/>
<line class="st0" x1="126.45" y1="376.5" x2="161.17" y2="376.5"/>
<rect x="206.67" y="240.83" transform="matrix(-0.7071 -0.7071 0.7071 -0.7071 310.182 640.1435)" class="st1" width="162" height="30"/>
<rect x="113.33" y="240.83" transform="matrix(0.7071 -0.7071 0.7071 0.7071 -123.9816 212.3439)" class="st1" width="162" height="30"/>
<rect x="226" y="209" class="st1" width="30" height="270"/>
<g>
	<path class="st1" d="M451.68,127.21c-2.21-11.69-6.83-22.52-13.31-31.98l18.71-23.96l-8.58-8.58l-8.58-8.58l-24.02,18.76
		c-9.38-6.35-20.11-10.87-31.66-13.05L380.56,30h-12.14h-12.14l-3.67,29.81c-11.53,2.18-22.23,6.68-31.6,13.01l-23.38-18.25
		l-8.58,8.58l-8.58,8.58L298.62,95c-6.59,9.55-11.27,20.52-13.49,32.35L256,130.94v12.14v12.14l29.13,3.59
		c2.18,11.62,6.73,22.41,13.14,31.84l-18.17,23.26l8.58,8.58l8.58,8.58l23.2-18.11c9.5,6.53,20.4,11.18,32.16,13.39l3.65,29.65
		h12.14h12.14l3.65-29.65c11.78-2.22,22.7-6.88,32.21-13.43l23.84,18.62l8.58-8.58l8.58-8.58l-18.71-23.96
		c6.3-9.33,10.78-19.99,12.95-31.46l30.32-3.73v-12.14v-12.14L451.68,127.21z"/>
</g>
<g>
</g>
<g>
</g>
<g>
</g>
<g>
</g>
<g>
</g>
<g>
</g>
<g>
</g>
<g>
</g>
<g>
</g>
<g>
</g>
<g>
</g>
<g>
</g>
<g>
</g>
<g>
</g>
<g>
</g>
</svg>
