<?xml version="1.0" encoding="utf-8"?>
<!-- Generator: Adobe Illustrator 23.0.1, SVG Export Plug-In . SVG Version: 6.00 Build 0)  -->
<svg version="1.1" id="Layer_1" xmlns="http://www.w3.org/2000/svg" xmlns:xlink="http://www.w3.org/1999/xlink" x="0px" y="0px"
	 viewBox="0 0 512 512" style="enable-background:new 0 0 512 512;" xml:space="preserve">
<style type="text/css">
	.st0{fill:#FFFFFF;}
</style>
<path class="st0" d="M491,160.2c-2.6-0.1-5.1,0.3-7.5,1v-32.3c0-11.9-9.7-21.6-21.6-21.6c-2.3,0-4.5,0.4-6.6,1
	c-0.2-11.7-9.8-21.1-21.5-21.1h-0.4c-8.2,0-15.3,4.6-19,11.3c-2.8-1.3-5.9-2.1-9.1-2.1h-0.4c-11.9,0-21.6,9.7-21.6,21.6V129
	c-2.1-0.7-4.3-1-6.5-1h-0.5c-11.7,0-21.4,9.5-21.5,21.3c-0.1,4.9-0.9,54.1,0.2,73.8c1.5,26.1,8,46.4,19.5,60.3
	c1.9,2.3,2.9,5,2.9,7.8v24.5h-0.2c-6.9,0-12.5,5.6-12.5,12.5v16c-4.5,1.4-7.7,5.6-7.7,10.5v149.8c0,4.1,3.4,7.5,7.5,7.5h119.3
	c4.1,0,7.5-3.4,7.5-7.5V358.8c0-5.6-3.1-10.6-7.7-13.2v-17.5c0-6.7-5.3-12.1-11.9-12.5v-19.9c0-3.7,1.6-7.1,4.5-9.4
	c0.5-0.4,1-0.8,1.5-1.2c0,0,0.1-0.1,0.1-0.1c14.7-12.7,24.5-27.3,29.9-44.8c2.8-9.1,4.3-18.7,4.3-28.5v-29.5
	C511.9,170.3,502.7,160.6,491,160.2z M476,358.7L476,358.7c0.1,0,0.2,0.1,0.2,0.1V497H371.9V358.7H476z M379.6,343.7v-13h88.9v13
	H379.6z M496.9,211.8c0,8.2-1.2,16.3-3.6,24c-4.6,14.9-12.7,26.9-25.3,37.8c-0.4,0.3-0.8,0.6-1.2,0.9c-6.5,5.1-10.2,12.9-10.2,21.2
	v19.9h-64.4v-24.5c0-6.3-2.2-12.4-6.3-17.4c-9.4-11.4-14.8-28.7-16.1-51.6c-1.1-19.1-0.2-67.8-0.1-72.7c0-3.6,3-6.4,6.5-6.4h0.5
	c1.7,0,3.4,0.7,4.6,1.9c1.2,1.2,1.9,2.9,1.9,4.6v42.1c0,4.1,3.4,7.5,7.5,7.5s7.5-3.4,7.5-7.5v-73.6c0-3.6,2.9-6.5,6.5-6.5h0.4
	c3.6,0,6.5,2.9,6.5,6.5v73.6c0,4.1,3.4,7.5,7.5,7.5s7.5-3.4,7.5-7.5v-82.9c0-3.6,2.9-6.5,6.5-6.5h0.4c3.6,0,6.5,2.9,6.5,6.5v82.9
	c0,4.1,3.4,7.5,7.5,7.5s7.5-3.4,7.5-7.5v-62.8c0-3.6,2.9-6.5,6.5-6.5s6.5,2.9,6.5,6.5v86.8c0,1.2-0.7,2.3-1.8,2.9
	c-7.7,3.9-18.5,10.7-26.3,20.6c-2.6,3.3-2,8,1.3,10.5c1.4,1.1,3,1.6,4.6,1.6c2.2,0,4.4-1,5.9-2.9c6.4-8.2,16.1-13.8,21.3-16.5
	c6.2-3.1,10-9.4,10-16.2v-33.8c0-1.8,0.7-3.6,2.1-4.8c1.3-1.3,3.1-1.9,4.9-1.9c3.6,0.1,6.5,3.3,6.5,7.1L496.9,211.8L496.9,211.8z"/>
<path class="st0" d="M138.6,340c11.5-13.9,18-34.2,19.5-60.3c1.1-19.7,0.8-39.6,0.4-58.9c-0.1-5-0.2-9.9-0.2-14.9
	c-0.2-11.7-9.8-21.3-21.6-21.3h-0.5c-2.3,0-4.5,0.4-6.5,1v-10.9c0-11.9-9.7-21.6-21.6-21.6h-0.4c-3.3,0-6.3,0.8-9.1,2.1
	c-3.6-6.7-10.8-11.3-19-11.3h-0.4c-11.7,0-21.3,9.4-21.5,21.1c-2.1-0.7-4.3-1-6.6-1c-11.9,0-21.6,9.7-21.6,21.6V218
	c-2.4-0.8-4.9-1.1-7.5-1C10.2,217.3,1,227,1,239v29.5c0,9.7,1.4,19.3,4.3,28.5c5.4,17.5,15.2,32.1,29.9,44.8c0,0,0.1,0.1,0.1,0.1
	c0.5,0.4,1,0.8,1.5,1.2c2.9,2.3,4.5,5.7,4.5,9.4v19.9c-6.6,0.3-11.9,5.8-11.9,12.5v17.5c-4.6,2.6-7.7,7.5-7.7,13.2v34
	c0,4.1,3.4,7.5,7.5,7.5c4.1,0,7.5-3.4,7.5-7.5v-34c0-0.1,0.1-0.1,0.1-0.1h104.2V497H36.8v-12.4c0-4.1-3.4-7.5-7.5-7.5
	s-7.5,3.4-7.5,7.5v19.9c0,4.1,3.4,7.5,7.5,7.5h119.3c4.1,0,7.5-3.4,7.5-7.5v-93.1c0-4.9-3.3-9.1-7.7-10.5v-16
	c0-6.9-5.6-12.5-12.5-12.5h-0.2v-24.5C135.7,345,136.7,342.2,138.6,340z M133.4,400.4H44.5v-13h88.9V400.4z M127,330.4
	c-4.1,4.9-6.3,11.1-6.3,17.4v24.5H56.3v-19.9c0-8.3-3.7-16.1-10.2-21.2c-0.4-0.3-0.8-0.6-1.2-0.9c-12.6-10.9-20.7-22.9-25.3-37.8
	c-2.4-7.7-3.6-15.8-3.6-24V239c0-3.8,2.9-6.9,6.5-7.1c1.9-0.1,3.6,0.6,4.9,1.9c1.3,1.3,2.1,3,2.1,4.8v33.8c0,6.9,3.8,13.1,10,16.2
	c5.2,2.6,14.9,8.3,21.3,16.5c1.5,1.9,3.7,2.9,5.9,2.9c1.6,0,3.3-0.5,4.6-1.6c3.3-2.6,3.8-7.3,1.3-10.5c-7.8-9.9-18.6-16.7-26.3-20.6
	c-1.1-0.6-1.8-1.7-1.8-2.9v-86.8c0-3.6,2.9-6.5,6.5-6.5s6.5,2.9,6.5,6.5v62.8c0,4.1,3.4,7.5,7.5,7.5s7.5-3.4,7.5-7.5v-82.9
	c0-3.6,2.9-6.5,6.5-6.5h0.4c3.6,0,6.5,2.9,6.5,6.5v82.9c0,4.1,3.4,7.5,7.5,7.5c4.1,0,7.5-3.4,7.5-7.5v-73.6c0-3.6,2.9-6.5,6.5-6.5
	h0.4c3.6,0,6.5,2.9,6.5,6.5v73.6c0,4.1,3.4,7.5,7.5,7.5s7.5-3.4,7.5-7.5v-42.1c0-3.6,2.9-6.5,6.5-6.5h0.5c3.6,0,6.5,2.9,6.5,6.4
	c0.1,5,0.2,10,0.2,14.9c0.3,19,0.7,38.7-0.4,57.8C141.8,301.7,136.4,319.1,127,330.4z"/>
<path class="st0" d="M322.5,81.9c-3.2-0.1-6.4,0.4-9.3,1.5V45.8c0-12.8-10.4-23.3-23.3-23.3c-2.9,0-5.7,0.5-8.3,1.5v-0.8
	c0-12.8-10.4-23.3-23.3-23.3h-0.5c-9.1,0-17.1,5.3-20.9,13c-3.2-1.7-6.8-2.6-10.6-2.6h-0.5c-12.8,0-23.3,10.4-23.3,23.3v13.5
	c-2.6-1-5.4-1.5-8.3-1.5h-0.6c-12.7,0-23.1,10.3-23.3,22.9c-0.1,5.6-1.1,60.7,0.2,82.7c1.6,29.1,8.9,51.7,21.7,67.1
	c2.2,2.7,3.4,6,3.4,9.4v28.4h-1.1c-7.2,0-13.1,5.9-13.1,13.1v18.7c-5,1.2-8.7,5.7-8.7,11.1v205.3c0,4.1,3.4,7.5,7.5,7.5h133.9
	c4.1,0,7.5-3.4,7.5-7.5V358c0-4.1-3.4-7.5-7.5-7.5s-7.5,3.4-7.5,7.5v139H187.9V302.8h117.8c0.6,0,1.1,0.5,1.1,1.1v19.3
	c0,4.1,3.4,7.5,7.5,7.5s7.5-3.4,7.5-7.5v-19.3c0-6.2-3.5-11.6-8.7-14.2v-20.2c0-7.2-5.9-13.1-13.1-13.1h-0.2v-23.2
	c0-4.5,2-8.6,5.4-11.3c0.5-0.4,1.1-0.9,1.7-1.3c0,0,0.1-0.1,0.1-0.1c16.4-14.1,27.3-30.4,33.3-49.9c3.2-10.2,4.8-20.8,4.8-31.7
	v-33.1C345.1,92.8,335.2,82.3,322.5,81.9z M196.6,287.7v-16.5h101.6v16.5H196.6z M330.1,138.8c0,9.3-1.4,18.5-4.1,27.2
	c-5.2,16.9-14.4,30.5-28.7,42.9c-0.5,0.4-0.9,0.7-1.3,1.1c-7.1,5.6-11.1,14-11.1,23.1v23.2h-74.1v-28.4c0-6.8-2.4-13.5-6.9-18.9
	c-10.7-12.9-16.8-32.6-18.2-58.4c-1.2-21.5-0.8-43.6-0.4-64.9c0.1-5.6,0.2-11.2,0.3-16.7c0.1-4.5,3.8-8.1,8.3-8.1h0.6
	c4.6,0,8.3,3.7,8.3,8.3v47.3c0,4.1,3.4,7.5,7.5,7.5s7.5-3.4,7.5-7.5V33.7c0-4.6,3.7-8.3,8.3-8.3h0.5c4.6,0,8.3,3.7,8.3,8.3v82.6
	c0,4.1,3.4,7.5,7.5,7.5s7.5-3.4,7.5-7.5v-93c0-4.6,3.7-8.3,8.3-8.3h0.5c4.6,0,8.3,3.7,8.3,8.3v93c0,4.1,3.4,7.5,7.5,7.5
	s7.5-3.4,7.5-7.5V45.8c0-4.6,3.7-8.3,8.3-8.3c4.6,0,8.3,3.7,8.3,8.3v97.4c0,1.7-1,3.2-2.5,4c-8.6,4.4-20.6,11.9-29.2,22.9
	c-2.6,3.3-2,8,1.3,10.5c1.4,1.1,3,1.6,4.6,1.6c2.2,0,4.4-1,5.9-2.9c7.3-9.3,18.3-15.8,24.2-18.8c6.6-3.4,10.7-10,10.7-17.4v-37.9
	c0-2.3,0.9-4.5,2.6-6.1s3.9-2.4,6.2-2.4c4.5,0.2,8.2,4.1,8.2,8.8V138.8z"/>
</svg>
